<svg width="49" height="48" viewBox="0 0 49 48" fill="none" xmlns="http://www.w3.org/2000/svg">
<path d="M35.5799 30.1721C35.1856 30.1722 34.8003 30.0552 34.4724 29.836C34.1446 29.6168 33.8891 29.3052 33.7381 28.9406C33.5872 28.5759 33.5477 28.1747 33.6245 27.7876C33.7013 27.4005 33.8911 27.0449 34.1698 26.7657C34.4485 26.4866 34.8036 26.2965 35.1903 26.2194C35.5769 26.1423 35.9777 26.1818 36.3419 26.3327C36.7062 26.4837 37.0175 26.7394 37.2366 27.0675C37.4557 27.3957 37.5726 27.7815 37.5727 28.1762C37.5721 28.7052 37.362 29.2124 36.9884 29.5866C36.6148 29.9608 36.1083 30.1713 35.5799 30.1721ZM13.5504 30.1721C13.1562 30.1722 12.7708 30.0552 12.4429 29.836C12.1151 29.6168 11.8596 29.3052 11.7086 28.9406C11.5577 28.5759 11.5182 28.1747 11.595 27.7876C11.6718 27.4005 11.8616 27.0449 12.1403 26.7657C12.419 26.4866 12.7741 26.2965 13.1608 26.2194C13.5474 26.1423 13.9482 26.1818 14.3124 26.3327C14.6767 26.4837 14.988 26.7394 15.2071 27.0675C15.4262 27.3957 15.5431 27.7815 15.5432 28.1762C15.5427 28.7052 15.3326 29.2125 14.959 29.5867C14.5854 29.9609 14.0788 30.1714 13.5504 30.1721ZM36.2946 18.1524L40.2777 11.2456C40.3321 11.1512 40.3675 11.0471 40.3818 10.939C40.3961 10.831 40.3889 10.7212 40.3608 10.6159C40.3327 10.5107 40.2842 10.412 40.218 10.3255C40.1517 10.239 40.0692 10.1664 39.9749 10.1119C39.8807 10.0573 39.7767 10.0219 39.6688 10.0076C39.5609 9.99332 39.4512 10.0005 39.3461 10.0286C39.2409 10.0567 39.1423 10.1053 39.0559 10.1716C38.9695 10.2379 38.897 10.3206 38.8426 10.4149L34.8092 17.409C31.7249 15.9997 28.2609 15.2149 24.5647 15.2149C20.8686 15.2149 17.405 16.0008 14.3207 17.409L10.2877 10.4149C10.2333 10.3206 10.1608 10.2379 10.0745 10.1715C9.98818 10.1052 9.88964 10.0565 9.78453 10.0283C9.67941 10.0001 9.56977 9.99288 9.46187 10.0071C9.35397 10.0213 9.24993 10.0566 9.15567 10.1111C9.06142 10.1656 8.9788 10.2381 8.91254 10.3245C8.84628 10.411 8.79767 10.5096 8.76949 10.6149C8.74131 10.7201 8.73411 10.8299 8.7483 10.9379C8.76249 11.0459 8.7978 11.1501 8.8522 11.2444L12.8356 18.1524C5.99589 21.877 1.31761 28.8094 0.633301 37H48.4969C47.8119 28.8094 43.134 21.877 36.2946 18.1524Z" fill="#3DDC84" />
</svg>