<svg width="49" height="48" viewBox="0 0 49 48" fill="none" xmlns="http://www.w3.org/2000/svg">
<path d="M37.8971 24.8017C37.8762 20.9562 39.6167 18.0538 43.1398 15.9162C41.1686 13.0976 38.1907 11.5469 34.2587 11.243C30.5365 10.9496 26.4682 13.412 24.9793 13.412C23.4065 13.412 19.7995 11.3478 16.9685 11.3478C11.1177 11.4421 4.8999 16.0105 4.8999 25.3046C4.8999 28.0499 5.4032 30.8859 6.40979 33.8128C7.7519 37.6583 12.5961 47.0886 17.65 46.9314C20.2923 46.8685 22.1587 45.0558 25.5979 45.0558C28.9322 45.0558 30.6623 46.9314 33.6087 46.9314C38.7045 46.858 43.0874 38.287 44.3666 34.431C37.5302 31.2143 37.8971 25.0007 37.8971 24.8017ZM31.9625 7.59662C34.8249 4.20172 34.5628 1.11068 34.4789 0C31.952 0.146693 29.0266 1.71841 27.3594 3.65686C25.5245 5.73152 24.4445 8.29865 24.6752 11.1906C27.4118 11.4002 29.9073 9.9961 31.9625 7.59662Z" fill="black" />
</svg>