<svg width="49" height="48" viewBox="0 0 49 48" fill="none" xmlns="http://www.w3.org/2000/svg">
<mask id="mask0_707_2257" style="mask-type:luminance" maskUnits="userSpaceOnUse" x="0" y="0" width="49" height="48">
<path d="M24.6333 48C37.8881 48 48.6333 37.2548 48.6333 24C48.6333 10.7452 37.8881 0 24.6333 0C11.3785 0 0.633301 10.7452 0.633301 24C0.633301 37.2548 11.3785 48 24.6333 48Z" fill="white"/>
</mask>
<g mask="url(#mask0_707_2257)">
<path d="M4.45142 7.62939e-06V29.4546H15.1969L24.6332 13.0909H48.6332V7.62939e-06H4.45142Z" fill="#DB4437"/>
<path d="M4.45142 7.62939e-06V29.4546H15.1969L24.6332 13.0909H48.6332V7.62939e-06H4.45142Z" fill="url(#paint0_linear_707_2257)"/>
<path d="M0.633301 48H23.4878L34.1242 37.3637V29.4546H15.1424L0.633301 4.50002V48Z" fill="#0F9D58"/>
<path d="M0.633301 48H23.4878L34.1242 37.3637V29.4546H15.1424L0.633301 4.50002V48Z" fill="url(#paint1_linear_707_2257)"/>
<path d="M24.6333 13.0909L34.0696 29.4546L23.5424 48H48.6333V13.0909H24.6333Z" fill="#FFCD40"/>
<path d="M24.6333 13.0909L34.0696 29.4546L23.5424 48H48.6333V13.0909H24.6333Z" fill="url(#paint2_linear_707_2257)"/>
<path d="M15.4423 29.3727L4.45142 11.0182L15.0878 29.5091L15.4423 29.3727Z" fill="#3E2723" fill-opacity="0.1"/>
<path d="M33.8515 29.8091L33.6333 29.7L23.4606 47.9727L33.906 29.7L33.8515 29.8091Z" fill="#263238" fill-opacity="0.1"/>
<path d="M24.6333 13.0909V18.8182L46.0151 13.0909H24.6333Z" fill="url(#paint3_radial_707_2257)"/>
<path d="M4.45142 11.0455L20.0514 26.6455L15.1969 29.4545L4.45142 11.0455Z" fill="url(#paint4_radial_707_2257)"/>
<path d="M23.4879 48L29.2152 26.6455L34.0697 29.4546L23.4879 48Z" fill="url(#paint5_radial_707_2257)"/>
<path d="M24.6333 34.9091C30.6583 34.9091 35.5424 30.0249 35.5424 24C35.5424 17.9751 30.6583 13.0909 24.6333 13.0909C18.6084 13.0909 13.7242 17.9751 13.7242 24C13.7242 30.0249 18.6084 34.9091 24.6333 34.9091Z" fill="#F1F1F1"/>
<path d="M24.6334 32.7273C29.4533 32.7273 33.3607 28.8199 33.3607 24C33.3607 19.1801 29.4533 15.2727 24.6334 15.2727C19.8135 15.2727 15.9061 19.1801 15.9061 24C15.9061 28.8199 19.8135 32.7273 24.6334 32.7273Z" fill="#4285F4"/>
<path d="M24.6333 48C37.8881 48 48.6333 37.2548 48.6333 24C48.6333 10.7452 37.8881 0 24.6333 0C11.3785 0 0.633301 10.7452 0.633301 24C0.633301 37.2548 11.3785 48 24.6333 48Z" fill="url(#paint6_radial_707_2257)"/>
<path d="M34.0697 29.4545C33.1107 31.1077 31.7343 32.4799 30.0782 33.4338C28.4221 34.3877 26.5445 34.8898 24.6333 34.8898C22.7221 34.8898 20.8445 34.3877 19.1884 33.4338C17.5323 32.4799 16.1559 31.1077 15.1969 29.4545L0.633301 4.77273L15.1969 29.7273C16.1559 31.3804 17.5323 32.7526 19.1884 33.7065C20.8445 34.6604 22.7221 35.1625 24.6333 35.1625C26.5445 35.1625 28.4221 34.6604 30.0782 33.7065C31.7343 32.7526 33.1107 31.3804 34.0697 29.7273V29.4545Z" fill="white" fill-opacity="0.1"/>
<path d="M24.906 13.0909H24.7697C27.6629 13.0909 30.4377 14.2403 32.4836 16.2861C34.5294 18.332 35.6788 21.1067 35.6788 24C35.6788 26.8933 34.5294 29.6681 32.4836 31.7139C30.4377 33.7598 27.6629 34.9091 24.7697 34.9091H24.906C30.906 34.9091 35.8151 30 35.8151 24C35.8151 18 30.906 13.0909 24.906 13.0909ZM24.6333 47.7273C30.9749 47.7274 37.0589 45.2175 41.5558 40.7461C46.0528 36.2747 48.5973 30.2052 48.6333 23.8636V24C48.6333 30.3652 46.1047 36.4697 41.6039 40.9706C37.103 45.4714 30.9985 48 24.6333 48C18.2681 48 12.1636 45.4714 7.66274 40.9706C3.16187 36.4697 0.633301 30.3652 0.633301 24V23.8636C0.669333 30.2052 3.21379 36.2747 7.71077 40.7461C12.2077 45.2175 18.2917 47.7274 24.6333 47.7273Z" fill="#3E2723" fill-opacity="0.1"/>
<path d="M34.1788 29.8091C34.9404 28.5022 35.4168 27.0489 35.5766 25.5447C35.7364 24.0405 35.576 22.5196 35.106 21.0818C35.5301 22.4721 35.6569 23.9359 35.4784 25.3784C35.2998 26.8209 34.8199 28.2097 34.0697 29.4545L23.8151 48L34.2333 29.8636L34.1788 29.8091ZM24.6333 0.272727C30.9749 0.272625 37.0589 2.78246 41.5558 7.25388C46.0528 11.7253 48.5973 17.7948 48.6333 24.1364V24C48.6333 17.6348 46.1047 11.5303 41.6039 7.02944C37.103 2.52856 30.9985 0 24.6333 0C18.2681 0 12.1636 2.52856 7.66274 7.02944C3.16187 11.5303 0.633301 17.6348 0.633301 24V24.1364C0.669333 17.7948 3.21379 11.7253 7.71077 7.25388C12.2077 2.78246 18.2917 0.272625 24.6333 0.272727Z" fill="white" fill-opacity="0.2"/>
<path d="M24.6333 12.8182C18.6333 12.8182 13.7242 17.7273 13.7242 23.7273V24C13.7242 18 18.6333 13.0909 24.6333 13.0909H48.6333V12.8182H24.6333Z" fill="#3E2723" fill-opacity="0.2"/>
</g>
<defs>
<linearGradient id="paint0_linear_707_2257" x1="6.44233" y1="18.5455" x2="20.7605" y2="10.2" gradientUnits="userSpaceOnUse">
<stop stop-color="#A52714" stop-opacity="0.6"/>
<stop offset="0.7" stop-color="#A52714" stop-opacity="0"/>
</linearGradient>
<linearGradient id="paint1_linear_707_2257" x1="28.6969" y1="42.9546" x2="12.7697" y2="33.6273" gradientUnits="userSpaceOnUse">
<stop stop-color="#055524" stop-opacity="0.4"/>
<stop offset="0.3" stop-color="#055524" stop-opacity="0"/>
</linearGradient>
<linearGradient id="paint2_linear_707_2257" x1="31.9696" y1="11.6727" x2="35.9787" y2="29.2091" gradientUnits="userSpaceOnUse">
<stop stop-color="#EA6100" stop-opacity="0.3"/>
<stop offset="0.7" stop-color="#EA6100" stop-opacity="0"/>
</linearGradient>
<radialGradient id="paint3_radial_707_2257" cx="0" cy="0" r="1" gradientUnits="userSpaceOnUse" gradientTransform="translate(23.5969 13.0909) scale(22.9364 22.9364)">
<stop stop-color="#3E2723" stop-opacity="0.2"/>
<stop offset="1" stop-color="#3E2723" stop-opacity="0"/>
</radialGradient>
<radialGradient id="paint4_radial_707_2257" cx="0" cy="0" r="1" gradientUnits="userSpaceOnUse" gradientTransform="translate(4.42414 11.0455) scale(21.2727 21.2727)">
<stop stop-color="#3E2723" stop-opacity="0.2"/>
<stop offset="1" stop-color="#3E2723" stop-opacity="0"/>
</radialGradient>
<radialGradient id="paint5_radial_707_2257" cx="0" cy="0" r="1" gradientUnits="userSpaceOnUse" gradientTransform="translate(24.5788 24.0273) scale(23.9727 23.9727)">
<stop stop-color="#263238" stop-opacity="0.2"/>
<stop offset="1" stop-color="#263238" stop-opacity="0"/>
</radialGradient>
<radialGradient id="paint6_radial_707_2257" cx="0" cy="0" r="1" gradientUnits="userSpaceOnUse" gradientTransform="translate(7.80603 6.54545) scale(48.2182)">
<stop stop-color="white" stop-opacity="0.1"/>
<stop offset="1" stop-color="white" stop-opacity="0"/>
</radialGradient>
</defs>
</svg>
