<svg width="49" height="48" viewBox="0 0 49 48" fill="none" xmlns="http://www.w3.org/2000/svg">
<path d="M46.8936 16.1171C45.8495 13.6847 43.7315 11.0583 42.0733 10.228C43.256 12.4456 44.0764 14.827 44.5065 17.2878L44.5109 17.3268C41.7942 10.7713 37.189 8.12391 33.4257 2.36685C33.2354 2.07572 33.0451 1.78396 32.8597 1.47601C32.7537 1.30011 32.6688 1.14161 32.595 0.99575C32.4389 0.70313 32.3187 0.393884 32.2366 0.074239C32.2367 0.0595289 32.2312 0.0452496 32.2212 0.0341811C32.2111 0.0231126 32.1972 0.015973 32.1821 0.0142002C32.1672 0.0102711 32.1516 0.0102711 32.1368 0.0142002C32.1337 0.0142002 32.1287 0.0196145 32.125 0.0208123C32.1213 0.0220102 32.1133 0.027425 32.1077 0.0298208L32.117 0.0142002C26.0815 3.43604 24.0324 9.76937 23.8465 12.939C21.4353 13.0991 19.13 13.9592 17.2313 15.407C17.0333 15.2445 16.8263 15.0926 16.6113 14.9519C16.0639 13.0963 16.0406 11.1324 16.5438 9.26511C14.3273 10.3047 12.3578 11.7786 10.76 13.5934H10.7489C9.79659 12.4246 9.86354 8.57053 9.91807 7.7655C9.63635 7.87513 9.36745 8.01341 9.11582 8.17796C8.27518 8.75888 7.48926 9.41077 6.76738 10.126C5.94469 10.9336 5.19337 11.8065 4.52117 12.7355V12.7391V12.735C2.9765 14.855 1.88081 17.2504 1.29729 19.7827L1.26507 19.9363C1.21979 20.1411 1.05674 21.1664 1.02883 21.3891C1.02883 21.4065 1.02512 21.4227 1.02329 21.4402C0.81293 22.4987 0.682588 23.5707 0.633301 24.6476V24.7677C0.64394 30.5899 2.90836 36.1967 6.97962 40.4812C11.0509 44.7658 16.6331 47.417 22.6243 47.911C28.6154 48.405 34.5802 46.7064 39.3412 43.1501C44.1022 39.5938 47.3132 34.4388 48.3405 28.7022C48.3806 28.402 48.4138 28.1049 48.4494 27.8017C48.9447 23.8408 48.4088 19.8228 46.8911 16.1135L46.8936 16.1171ZM19.1991 34.3307C19.3114 34.383 19.4168 34.4394 19.5321 34.4892L19.5488 34.4995C19.4323 34.4454 19.3157 34.3892 19.1991 34.3307ZM44.5114 17.3334V17.3112L44.5159 17.3358L44.5114 17.3334Z" fill="url(#paint0_linear_707_2292)"/>
<path d="M46.8936 16.1173C45.8495 13.6848 43.7316 11.0584 42.0733 10.2282C43.2555 12.4457 44.0765 14.8271 44.5065 17.2879V17.3101L44.5109 17.3347C46.3632 22.4669 46.0954 28.0937 43.7632 33.039C41.0094 38.7608 34.3457 44.6252 23.9115 44.3372C12.6403 44.0277 2.70828 35.9265 0.854531 25.3189C0.516649 23.6459 0.854531 22.7976 1.02441 21.4379C0.792675 22.4941 0.663371 23.5689 0.638184 24.6484V24.7684C0.648773 30.5907 2.91324 36.1975 6.98445 40.4819C11.0557 44.7665 16.6379 47.4177 22.6291 47.9117C28.6203 48.4057 34.5851 46.7071 39.3462 43.1508C44.1072 39.5945 47.3182 34.4395 48.3455 28.7029C48.3856 28.4028 48.4188 28.1056 48.4544 27.8025C48.9492 23.8415 48.4138 19.8236 46.8961 16.1143L46.8936 16.1173Z" fill="url(#paint1_radial_707_2292)"/>
<path d="M46.8936 16.1173C45.8495 13.6848 43.7316 11.0584 42.0733 10.2282C43.2555 12.4457 44.0765 14.8271 44.5065 17.2879V17.3101L44.5109 17.3347C46.3632 22.4669 46.0954 28.0937 43.7632 33.039C41.0094 38.7608 34.3457 44.6252 23.9115 44.3372C12.6403 44.0277 2.70828 35.9265 0.854531 25.3189C0.516649 23.6459 0.854531 22.7976 1.02441 21.4379C0.792675 22.4941 0.663371 23.5689 0.638184 24.6484V24.7684C0.648773 30.5907 2.91324 36.1975 6.98445 40.4819C11.0557 44.7665 16.6379 47.4177 22.6291 47.9117C28.6203 48.4057 34.5851 46.7071 39.3462 43.1508C44.1072 39.5945 47.3182 34.4395 48.3455 28.7029C48.3856 28.4028 48.4188 28.1056 48.4544 27.8025C48.9492 23.8415 48.4138 19.8236 46.8961 16.1143L46.8936 16.1173Z" fill="url(#paint2_radial_707_2292)"/>
<path d="M35.2132 18.8487C35.2652 18.8842 35.3136 18.9196 35.3626 18.955C34.759 17.9187 34.0076 16.9698 33.1307 16.1365C25.66 8.90269 31.1734 0.456236 32.1027 0.0239894L32.112 0.0107651C26.0766 3.43261 24.0276 9.76594 23.8416 12.9356C24.1218 12.917 24.3995 12.8942 24.686 12.8942C26.8273 12.8982 28.9293 13.4511 30.7783 14.4968C32.6274 15.5425 34.1575 17.0436 35.2132 18.8475V18.8487Z" fill="url(#paint3_radial_707_2292)"/>
<path d="M24.6982 20.2955C24.6585 20.8742 22.5469 22.8702 21.8085 22.8702C14.9763 22.8702 13.8666 26.8726 13.8666 26.8726C14.1691 30.2427 16.5945 33.0198 19.5263 34.4846C19.6602 34.5518 19.796 34.6124 19.9318 34.6719C20.167 34.7727 20.4022 34.866 20.6373 34.9516C21.6435 35.2964 22.6974 35.4933 23.7639 35.5358C35.7418 36.0796 38.0606 21.6684 29.4174 17.4842C31.4563 17.2273 33.521 17.7128 35.2111 18.8463C34.1555 17.0424 32.6253 15.5413 30.7763 14.4956C28.9273 13.4499 26.8252 12.897 24.6839 12.893C24.3988 12.893 24.1198 12.9158 23.8395 12.9344C21.4284 13.0945 19.1231 13.9545 17.2244 15.4023C17.5907 15.7025 18.0043 16.1035 18.8754 16.9349C20.5059 18.4903 24.6877 20.1016 24.697 20.2907L24.6982 20.2955Z" fill="url(#paint4_radial_707_2292)"/>
<path d="M24.6982 20.2955C24.6585 20.8742 22.5469 22.8702 21.8085 22.8702C14.9763 22.8702 13.8666 26.8726 13.8666 26.8726C14.1691 30.2427 16.5945 33.0198 19.5263 34.4846C19.6602 34.5518 19.796 34.6124 19.9318 34.6719C20.167 34.7727 20.4022 34.866 20.6373 34.9516C21.6435 35.2964 22.6974 35.4933 23.7639 35.5358C35.7418 36.0796 38.0606 21.6684 29.4174 17.4842C31.4563 17.2273 33.521 17.7128 35.2111 18.8463C34.1555 17.0424 32.6253 15.5413 30.7763 14.4956C28.9273 13.4499 26.8252 12.897 24.6839 12.893C24.3988 12.893 24.1198 12.9158 23.8395 12.9344C21.4284 13.0945 19.1231 13.9545 17.2244 15.4023C17.5907 15.7025 18.0043 16.1035 18.8754 16.9349C20.5059 18.4903 24.6877 20.1016 24.697 20.2907L24.6982 20.2955Z" fill="url(#paint5_radial_707_2292)"/>
<path d="M16.1055 14.6344C16.3002 14.7544 16.4608 14.8589 16.6015 14.9531C16.054 13.0975 16.0307 11.1337 16.5339 9.26632C14.3174 10.3059 12.3479 11.7798 10.7501 13.5946C10.8673 13.5916 14.3528 13.531 16.1055 14.6344Z" fill="url(#paint6_radial_707_2292)"/>
<path d="M0.850414 25.32C2.70476 35.9277 12.6361 44.032 23.9073 44.3382C34.3416 44.6237 41.0064 38.7589 43.7588 33.0401C46.091 28.0948 46.3592 22.468 44.5065 17.3358V17.3136C44.5065 17.2962 44.503 17.286 44.5065 17.2914L44.5109 17.3305C45.3636 22.7195 42.5325 27.938 38.1067 31.4739L38.093 31.5039C29.4692 38.3056 21.2172 35.6065 19.5495 34.5055C19.433 34.4515 19.3164 34.3952 19.1998 34.3368C14.1724 32.01 12.0949 27.5772 12.5413 23.7713C11.3479 23.7883 10.175 23.4699 9.16474 22.8545C8.15446 22.2392 7.35018 21.3534 6.8493 20.3044C8.16911 19.5216 9.67394 19.079 11.2205 19.0189C12.767 18.9588 14.3036 19.2831 15.684 19.961C18.5292 21.2116 21.7668 21.3348 24.7046 20.3044C24.6953 20.1153 20.5136 18.5035 18.883 16.9486C18.012 16.1172 17.5985 15.7168 17.232 15.416C17.034 15.2536 16.8271 15.1017 16.6121 14.961C16.4695 14.8667 16.3089 14.7647 16.1161 14.6422C14.3634 13.5389 10.8779 13.5995 10.7626 13.6025H10.7514C9.79913 12.4336 9.86609 8.57959 9.92067 7.77461C9.63895 7.88424 9.37 8.02248 9.11842 8.18702C8.27773 8.76795 7.49186 9.41984 6.76993 10.135C5.94432 10.9404 5.18988 11.8113 4.51446 12.7386C2.9698 14.8587 1.8741 17.2534 1.29058 19.7857C1.2788 19.8332 0.425093 23.4471 0.84606 25.3213L0.850414 25.32Z" fill="url(#paint7_radial_707_2292)"/>
<path d="M33.1298 16.1353C34.0071 16.9696 34.7584 17.9194 35.3617 18.9568C35.4938 19.0534 35.6172 19.1495 35.7219 19.2425C41.1697 24.1051 38.3154 30.9787 38.1027 31.465C42.5281 27.9345 45.3566 22.7124 44.507 17.3215C41.7893 10.76 37.1789 8.11265 33.4218 2.3556C33.2315 2.06447 33.0412 1.77271 32.8558 1.46471C32.7498 1.28886 32.6649 1.13035 32.5911 0.984497C32.435 0.691877 32.3148 0.382581 32.2327 0.0629847C32.2328 0.0482267 32.2273 0.0339478 32.2173 0.0228793C32.2072 0.0118108 32.1933 0.00471968 32.1782 0.00294681C32.1634 -0.000982269 32.1477 -0.000982269 32.1329 0.00294681C32.1298 0.00294681 32.1249 0.0083611 32.1211 0.00955899C32.1174 0.0107569 32.1094 0.0161717 32.1038 0.0185675C31.1744 0.445399 25.6622 8.89727 33.133 16.1251L33.1298 16.1353Z" fill="url(#paint8_radial_707_2292)"/>
<path d="M35.7214 19.245C35.6166 19.1519 35.4932 19.0558 35.3612 18.9592C35.3122 18.9238 35.2638 18.8884 35.2118 18.853C33.5216 17.7194 31.4569 17.2339 29.4181 17.4908C38.0605 21.6751 35.7418 36.0827 23.7645 35.5424C22.6981 35.4999 21.6442 35.303 20.638 34.9582C20.4028 34.873 20.1676 34.7798 19.9324 34.6785C19.7967 34.6185 19.6609 34.5584 19.527 34.4912L19.5437 34.5014C21.2139 35.6054 29.4633 38.3027 38.0872 31.4998L38.1009 31.4698C38.316 30.9836 41.1703 24.1099 35.7202 19.2474L35.7214 19.245Z" fill="url(#paint9_radial_707_2292)"/>
<path d="M13.8672 26.8689C13.8672 26.8689 14.9764 22.8666 21.8091 22.8666C22.5475 22.8666 24.661 20.8706 24.6988 20.2919C21.761 21.3222 18.5234 21.199 15.6782 19.9485C14.2978 19.2706 12.7612 18.9463 11.2147 19.0063C9.66814 19.0665 8.16331 19.509 6.84351 20.2919C7.34439 21.3408 8.14867 22.2266 9.15895 22.842C10.1692 23.4573 11.3421 23.7758 12.5355 23.7587C12.0904 27.5629 14.1673 31.995 19.1941 34.3243C19.3063 34.3765 19.4117 34.4329 19.527 34.4828C16.5926 33.015 14.1698 30.2391 13.8672 26.8707V26.8689Z" fill="url(#paint10_radial_707_2292)"/>
<path d="M46.8935 16.1171C45.8494 13.6847 43.7314 11.0583 42.0732 10.228C43.2559 12.4456 44.0764 14.827 44.5064 17.2878L44.5108 17.3268C41.7941 10.7713 37.1889 8.12391 33.4256 2.36685C33.2353 2.07572 33.045 1.78396 32.8596 1.47601C32.7536 1.30011 32.6686 1.14161 32.5949 0.99575C32.4388 0.70313 32.3185 0.393884 32.2365 0.074239C32.2366 0.0595289 32.2311 0.0452496 32.221 0.0341811C32.211 0.0231126 32.1971 0.015973 32.182 0.0142002C32.1672 0.0102711 32.1515 0.0102711 32.1367 0.0142002C32.1336 0.0142002 32.1287 0.0196145 32.1249 0.0208123C32.1212 0.0220102 32.1131 0.027425 32.1076 0.0298208L32.1168 0.0142002C26.0814 3.43604 24.0324 9.76937 23.8463 12.939C24.1266 12.9204 24.4043 12.8976 24.6908 12.8976C26.8321 12.9017 28.9341 13.4546 30.7832 14.5003C32.6322 15.5459 34.1623 17.047 35.218 18.851C33.5278 17.7174 31.4631 17.232 29.4243 17.4889C38.0668 21.6731 35.7481 36.0807 23.7707 35.5404C22.7043 35.498 21.6504 35.3011 20.6442 34.9563C20.409 34.871 20.1738 34.7778 19.9386 34.6765C19.8029 34.6165 19.6671 34.5565 19.5332 34.4892L19.5499 34.4995C19.4333 34.4454 19.3168 34.3892 19.2002 34.3307C19.3125 34.383 19.4179 34.4394 19.5332 34.4892C16.5988 33.0209 14.1759 30.245 13.8734 26.8772C13.8734 26.8772 14.9825 22.8749 21.8153 22.8749C22.5537 22.8749 24.6672 20.8788 24.705 20.3002C24.6957 20.111 20.514 18.4992 18.8834 16.9444C18.0124 16.1129 17.5989 15.7125 17.2325 15.4118C17.0344 15.2493 16.8275 15.0974 16.6125 14.9567C16.065 13.1011 16.0417 11.1373 16.5449 9.2699C14.3284 10.3095 12.3589 11.7834 10.7611 13.5982H10.75C9.79768 12.4294 9.86464 8.57537 9.91922 7.77034C9.6375 7.87997 9.36855 8.0182 9.11692 8.18275C8.27628 8.76367 7.49036 9.41557 6.76848 10.1308C5.94579 10.9384 5.19447 11.8113 4.52232 12.7403C2.97765 14.8604 1.88196 17.2552 1.29843 19.7875L1.26617 19.9412C1.22094 20.1459 1.0182 21.1856 0.989057 21.4089C0.803588 22.4822 0.685171 23.5654 0.634399 24.6524V24.7725C0.645039 30.5947 2.90946 36.2015 6.98072 40.486C11.052 44.7706 16.6341 47.4218 22.6254 47.9158C28.6165 48.4098 34.5814 46.7112 39.3421 43.1549C44.1031 39.5986 47.3141 34.4436 48.3414 28.707C48.382 28.4068 48.4147 28.1097 48.4508 27.8065C48.9456 23.8456 48.4097 19.8277 46.892 16.1183L46.8935 16.1171Z" fill="url(#paint11_linear_707_2292)"/>
<defs>
<linearGradient id="paint0_linear_707_2292" x1="43.7132" y1="7.4461" x2="5.06229" y2="45.9585" gradientUnits="userSpaceOnUse">
<stop offset="0.048" stop-color="#FFF44F"/>
<stop offset="0.111" stop-color="#FFE847"/>
<stop offset="0.225" stop-color="#FFC830"/>
<stop offset="0.368" stop-color="#FF980E"/>
<stop offset="0.401" stop-color="#FF8B16"/>
<stop offset="0.462" stop-color="#FF672A"/>
<stop offset="0.534" stop-color="#FF3647"/>
<stop offset="0.705" stop-color="#E31587"/>
</linearGradient>
<radialGradient id="paint1_radial_707_2292" cx="0" cy="0" r="1" gradientUnits="userSpaceOnUse" gradientTransform="translate(42.1693 5.41363) scale(50.0944 48.5059)">
<stop offset="0.129" stop-color="#FFBD4F"/>
<stop offset="0.186" stop-color="#FFAC31"/>
<stop offset="0.247" stop-color="#FF9D17"/>
<stop offset="0.283" stop-color="#FF980E"/>
<stop offset="0.403" stop-color="#FF563B"/>
<stop offset="0.467" stop-color="#FF3750"/>
<stop offset="0.71" stop-color="#F5156C"/>
<stop offset="0.782" stop-color="#EB0878"/>
<stop offset="0.86" stop-color="#E50080"/>
</radialGradient>
<radialGradient id="paint2_radial_707_2292" cx="0" cy="0" r="1" gradientUnits="userSpaceOnUse" gradientTransform="translate(23.5699 25.2241) scale(50.0944 48.5059)">
<stop offset="0.3" stop-color="#960E18"/>
<stop offset="0.351" stop-color="#B11927" stop-opacity="0.74"/>
<stop offset="0.435" stop-color="#DB293D" stop-opacity="0.343"/>
<stop offset="0.497" stop-color="#F5334B" stop-opacity="0.094"/>
<stop offset="0.53" stop-color="#FF3750" stop-opacity="0"/>
</radialGradient>
<radialGradient id="paint3_radial_707_2292" cx="0" cy="0" r="1" gradientUnits="userSpaceOnUse" gradientTransform="translate(29.7698 -5.39208) scale(36.2872 35.1366)">
<stop offset="0.132" stop-color="#FFF44F"/>
<stop offset="0.252" stop-color="#FFDC3E"/>
<stop offset="0.506" stop-color="#FF9D12"/>
<stop offset="0.526" stop-color="#FF980E"/>
</radialGradient>
<radialGradient id="paint4_radial_707_2292" cx="0" cy="0" r="1" gradientUnits="userSpaceOnUse" gradientTransform="translate(17.99 37.8308) scale(23.8505 23.0942)">
<stop offset="0.353" stop-color="#3A8EE6"/>
<stop offset="0.472" stop-color="#5C79F0"/>
<stop offset="0.669" stop-color="#9059FF"/>
<stop offset="1" stop-color="#C139E6"/>
</radialGradient>
<radialGradient id="paint5_radial_707_2292" cx="0" cy="0" r="1" gradientUnits="userSpaceOnUse" gradientTransform="translate(25.9927 21.0603) rotate(-13.1759) scale(12.6258 14.3624)">
<stop offset="0.206" stop-color="#9059FF" stop-opacity="0"/>
<stop offset="0.278" stop-color="#8C4FF3" stop-opacity="0.064"/>
<stop offset="0.747" stop-color="#7716A8" stop-opacity="0.45"/>
<stop offset="0.975" stop-color="#6E008B" stop-opacity="0.6"/>
</radialGradient>
<radialGradient id="paint6_radial_707_2292" cx="0" cy="0" r="1" gradientUnits="userSpaceOnUse" gradientTransform="translate(22.95 3.61252) scale(17.161 16.6168)">
<stop stop-color="#FFE226"/>
<stop offset="0.121" stop-color="#FFDB27"/>
<stop offset="0.295" stop-color="#FFC82A"/>
<stop offset="0.502" stop-color="#FFA930"/>
<stop offset="0.732" stop-color="#FF7E37"/>
<stop offset="0.792" stop-color="#FF7139"/>
</radialGradient>
<radialGradient id="paint7_radial_707_2292" cx="0" cy="0" r="1" gradientUnits="userSpaceOnUse" gradientTransform="translate(36.5896 -7.19313) scale(73.2191 70.8973)">
<stop offset="0.113" stop-color="#FFF44F"/>
<stop offset="0.456" stop-color="#FF980E"/>
<stop offset="0.622" stop-color="#FF5634"/>
<stop offset="0.716" stop-color="#FF3647"/>
<stop offset="0.904" stop-color="#E31587"/>
</radialGradient>
<radialGradient id="paint8_radial_707_2292" cx="0" cy="0" r="1" gradientUnits="userSpaceOnUse" gradientTransform="translate(30.5036 -3.26216) rotate(83.7802) scale(51.9739 35.2012)">
<stop stop-color="#FFF44F"/>
<stop offset="0.06" stop-color="#FFE847"/>
<stop offset="0.168" stop-color="#FFC830"/>
<stop offset="0.304" stop-color="#FF980E"/>
<stop offset="0.356" stop-color="#FF8B16"/>
<stop offset="0.455" stop-color="#FF672A"/>
<stop offset="0.57" stop-color="#FF3647"/>
<stop offset="0.737" stop-color="#E31587"/>
</radialGradient>
<radialGradient id="paint9_radial_707_2292" cx="0" cy="0" r="1" gradientUnits="userSpaceOnUse" gradientTransform="translate(22.9498 9.61586) scale(45.7047 44.2554)">
<stop offset="0.137" stop-color="#FFF44F"/>
<stop offset="0.48" stop-color="#FF980E"/>
<stop offset="0.592" stop-color="#FF5634"/>
<stop offset="0.655" stop-color="#FF3647"/>
<stop offset="0.904" stop-color="#E31587"/>
</radialGradient>
<radialGradient id="paint10_radial_707_2292" cx="0" cy="0" r="1" gradientUnits="userSpaceOnUse" gradientTransform="translate(34.7294 12.0171) scale(50.0261 48.4397)">
<stop offset="0.094" stop-color="#FFF44F"/>
<stop offset="0.231" stop-color="#FFE141"/>
<stop offset="0.509" stop-color="#FFAF1E"/>
<stop offset="0.626" stop-color="#FF980E"/>
</radialGradient>
<linearGradient id="paint11_linear_707_2292" x1="43.2292" y1="7.24801" x2="10.3852" y2="41.1737" gradientUnits="userSpaceOnUse">
<stop offset="0.167" stop-color="#FFF44F" stop-opacity="0.8"/>
<stop offset="0.266" stop-color="#FFF44F" stop-opacity="0.634"/>
<stop offset="0.489" stop-color="#FFF44F" stop-opacity="0.217"/>
<stop offset="0.6" stop-color="#FFF44F" stop-opacity="0"/>
</linearGradient>
</defs>
</svg>
