<svg width="49" height="48" viewBox="0 0 49 48" fill="none" xmlns="http://www.w3.org/2000/svg">
<path d="M24.5312 20.3636V28.109H35.2401C34.7698 30.5999 33.3587 32.7091 31.2423 34.1273L37.7001 39.1637C41.4627 35.6729 43.6334 30.5456 43.6334 24.4547C43.6334 23.0365 43.5068 21.6728 43.2716 20.3638L24.5312 20.3636Z" fill="#4285F4" />
<path d="M13.3796 27.8067L11.9231 28.9274L6.76758 32.9637C10.0417 39.4909 16.7523 44 24.5306 44C29.903 44 34.4072 42.2182 37.6995 39.1637L31.2417 34.1273C29.4689 35.3273 27.2077 36.0547 24.5306 36.0547C19.3572 36.0547 14.9616 32.5456 13.3877 27.8183L13.3796 27.8067Z" fill="#34A853" />
<path d="M6.76768 15.0364C5.41106 17.7272 4.6333 20.7636 4.6333 23.9999C4.6333 27.2362 5.41106 30.2726 6.76768 32.9634C6.76768 32.9815 13.3885 27.7998 13.3885 27.7998C12.9905 26.5998 12.7553 25.3272 12.7553 23.9997C12.7553 22.6723 12.9905 21.3996 13.3885 20.1996L6.76768 15.0364Z" fill="#FBBC05" />
<path d="M24.5311 11.9636C27.4616 11.9636 30.0664 12.9818 32.1466 14.9454L37.8447 9.21825C34.3896 5.98194 29.9036 4 24.5311 4C16.7527 4 10.0417 8.4909 6.76758 15.0364L13.3882 20.2C14.9618 15.4727 19.3576 11.9636 24.5311 11.9636Z" fill="#EA4335" />
</svg>