<?xml version="1.0" encoding="utf-8" ?>
<!DOCTYPE svg PUBLIC "-//W3C//DTD SVG 1.1//EN" "http://www.w3.org/Graphics/SVG/1.1/DTD/svg11.dtd">
<svg xmlns="http://www.w3.org/2000/svg" width="1103" height="503" viewBox="0 0 1103 503" fill="none"><rect x="836" y="1" width="265.153" height="114" rx="11" fill="url('#paint0_linear_16_253')"/><rect x="836" y="1" width="265.153" height="114" rx="11" stroke="url('#paint1_linear_16_253')" stroke-width="2"/><path d="M871.517 97.7085C877.37 96.2451 885.723 94.1111 889.168 93.2271C893.68 93.5014 903.143 94.0502 904.899 94.0502C907.094 94.0502 920.355 99.2632 929.684 103.013C937.147 106.013 938.769 112.921 938.647 116H845.268C844.842 115.39 844.61 112.982 847.098 108.226C850.207 102.281 864.2 99.5376 871.517 97.7085Z" fill="#263A87"/><path d="M880.638 99.5436V83.2037L907.496 83.6667V99.0907C905.722 101.021 900.545 105.004 894.025 105.489C887.505 105.974 882.384 101.728 880.638 99.5436Z" fill="url('#paint2_linear_16_253')"/><path d="M868.405 34.4588C864.864 40.4483 868.188 52.2321 870.293 57.3753L875.762 60.2399C887.047 58.5689 911.114 54.3935 917.103 51.0602C924.59 46.8936 924.916 39.6671 923.679 34.8494C922.442 30.0317 913.392 18.3781 898.288 17.7271C883.184 17.076 872.832 26.9718 868.405 34.4588Z" fill="url('#paint3_linear_16_253')"/><path d="M880.462 51.318C880.223 54.9731 876.985 57.0125 875.396 57.5753C875.065 56.4828 873.767 54.3771 871.224 54.695C868.046 55.0923 867.252 61.4489 867.351 64.1307C867.45 66.8124 868.741 69.7921 870.331 72.4738C871.602 74.6192 874.237 74.2285 875.396 73.765C876.124 75.3211 877.939 79.347 879.369 83.0021C881.157 87.5709 892.281 90.8486 894.963 91.0472C897.644 91.2459 900.723 90.7493 906.286 88.4648C911.848 86.1804 915.821 76.9433 917.509 61.4489C918.86 49.0534 915.821 43.4383 914.132 42.1802C912.046 42.3458 906.683 42.6769 901.915 42.6769H881.554C881.289 44.0343 880.7 47.6629 880.462 51.318Z" fill="url('#paint4_linear_16_253')"/><path d="M950.653 25L956.153 23.5H991.653L1077.15 24L1081.65 28V78.5L975.653 77.5L949.653 80L948.653 30.5L950.653 25Z" fill="url('#paint5_linear_16_253')"/><path d="M960.153 67C954.953 69.4 951.653 73.3333 950.653 75L949.653 75.5V90L954.153 92.5H1077.65L1081.65 88.5V43.5C1080.15 44.8333 1076.45 47.8 1073.65 49C1070.15 50.5 1057.65 48.5 1052.15 47.5C1047.75 46.7 1040.99 50.1667 1038.15 52C1032.99 57.3333 1020.95 68.3 1014.15 69.5C1005.65 71 994.653 59 989.153 55.5C983.653 52 980.153 55 975.653 59C971.153 63 966.653 64 960.153 67Z" fill="url('#paint6_linear_16_253')"/><path d="M1081.65 43.5C1080.15 44.8333 1076.45 47.8 1073.65 49C1070.15 50.5 1057.65 48.5 1052.15 47.5C1047.75 46.7 1040.99 50.1667 1038.15 52C1032.99 57.3333 1020.95 68.3 1014.15 69.5C1005.65 71 994.653 59 989.153 55.5C983.653 52 980.153 55 975.653 59C971.153 63 966.653 64 960.153 67C954.953 69.4 951.653 73.3333 950.653 75L949.653 75.5" stroke="#21395C" stroke-width="3"/><rect x="949.153" y="23.5" width="133" height="69" rx="6" stroke="url('#paint7_linear_16_253')" stroke-width="3"/><rect x="836" y="196" width="263.974" height="114" rx="11" fill="url('#paint8_linear_16_253')"/><rect x="836" y="196" width="263.974" height="114" rx="11" stroke="url('#paint9_linear_16_253')" stroke-width="2"/><path d="M853.211 290.674C853.775 292.072 852.629 298.304 851.986 301.245L920.695 295.432C921.678 292.888 923.748 287.243 924.165 285.022C924.685 282.246 922.95 281.031 922.95 278.949C922.95 276.867 924.685 276 926.767 273.831C928.849 271.662 928.416 266.717 928.155 263.247C927.895 259.777 922.69 253.097 920.695 248.759C918.699 244.421 919.306 238.435 919.22 233.577C919.133 228.719 917.051 222.473 909.503 216.747C901.956 211.021 889.55 213.797 878.966 218.048C868.382 222.299 865.519 232.97 865.519 236.527C865.519 239.372 869.105 243.322 870.898 244.942C870.233 244.855 868.486 244.734 866.82 244.942C864.738 245.202 863.003 247.371 861.615 249.626C860.227 251.882 859.446 255.179 858.752 259.256C858.058 263.334 859.273 265.849 859.446 272.529C859.62 279.209 855.542 283.721 853.634 286.03C851.725 288.339 852.506 288.926 853.211 290.674Z" fill="url('#paint10_linear_16_253')"/><path d="M874.143 290.674C877.427 289.705 879.909 287.174 880.739 286.03L904.632 286.568C905.35 286.793 907.338 287.47 909.545 288.386C912.305 289.53 928.592 297.001 933.64 301.712C937.679 305.481 937.746 309.474 937.275 311H845V307.635C845 306.019 848.702 302.048 853.211 298.683C857.721 295.318 870.037 291.885 874.143 290.674Z" fill="url('#paint11_linear_16_253')"/><path d="M879.743 292.811V271.084L906.465 274.081C906.632 280.075 906.865 292.911 906.465 296.308C906.066 299.704 901.193 300.498 898.806 300.47C899.25 300.498 898.457 300.537 891.73 300.47C885.004 300.404 880.936 295.337 879.743 292.811Z" fill="url('#paint12_linear_16_253')"/><path d="M877.952 271.046C875.539 267.023 875.127 258.354 875.222 254.522C875.061 248.97 876.731 244.392 877.306 242.309C877.766 240.642 880.611 239.842 881.976 239.65C883.724 239.459 888.787 238.486 895.051 236.13C902.883 233.184 904.104 231.891 904.966 230.454C905.656 229.305 906.451 229.448 906.762 229.664C909.708 232.25 915.8 238.573 916.605 243.171C917.611 248.918 916.964 262.569 913.659 271.046C910.354 279.524 902.811 282.039 896.488 282.182C890.166 282.326 880.97 276.075 877.952 271.046Z" fill="url('#paint13_linear_16_253')"/><rect x="948.474" y="215.5" width="131.5" height="75" rx="11" fill="url('#paint14_linear_16_253')"/><rect x="948.474" y="215.5" width="131.5" height="75" rx="11" stroke="url('#paint15_linear_16_253')" stroke-width="2"/><path fill-rule="evenodd" clip-rule="evenodd" d="M1001.63 238.247C1001.05 238.247 1000.5 238.469 1000.1 238.874C999.693 239.279 999.471 239.827 999.471 240.401V247.073H1008.13V238.247H1001.63ZM1001.63 234.722C1000.12 234.722 998.675 235.323 997.604 236.38C996.533 237.451 995.946 238.887 995.946 240.401V264.946C995.946 266.447 996.546 267.896 997.604 268.967C998.675 270.038 1000.11 270.625 1001.63 270.625H1014.79C1015.76 270.625 1016.55 269.842 1016.55 268.863C1016.55 267.883 1015.76 267.1 1014.79 267.1H1011.65V250.598H1028.31V253.731C1028.31 254.71 1029.09 255.494 1030.07 255.494C1031.05 255.494 1031.84 254.71 1031.84 253.731V240.401C1031.84 238.9 1031.24 237.451 1030.18 236.38C1029.11 235.31 1027.67 234.722 1026.16 234.722H1001.63ZM1011.65 238.247V247.073H1028.31V240.401C1028.31 239.827 1028.09 239.279 1027.68 238.874C1027.28 238.469 1026.73 238.247 1026.16 238.247H1011.65ZM1008.13 250.598H999.471V264.946C999.471 265.52 999.693 266.069 1000.1 266.473C1000.5 266.878 1001.05 267.1 1001.63 267.1H1008.13V250.598Z" fill="url('#paint16_linear_16_253')"/><path d="M1026.63 258.222C1027.86 258.222 1028.85 259.22 1028.85 260.451C1028.85 261.173 1029.14 261.866 1029.65 262.377C1030.16 262.887 1030.86 263.174 1031.58 263.174C1032.81 263.174 1033.81 264.172 1033.81 265.403C1033.81 266.634 1032.81 267.631 1031.58 267.631C1030.86 267.631 1030.16 267.918 1029.65 268.429C1029.14 268.94 1028.85 269.633 1028.85 270.355C1028.85 271.586 1027.86 272.583 1026.63 272.583C1025.4 272.583 1024.4 271.586 1024.4 270.355C1024.4 269.633 1024.11 268.94 1023.6 268.429C1023.09 267.918 1022.4 267.631 1021.67 267.631C1020.44 267.631 1019.45 266.634 1019.45 265.403C1019.45 264.172 1020.44 263.174 1021.67 263.174C1022.4 263.174 1023.09 262.887 1023.6 262.377C1024.11 261.866 1024.4 261.173 1024.4 260.451C1024.4 259.22 1025.4 258.222 1026.63 258.222Z" fill="url('#paint17_linear_16_253')"/><path d="M1018.79 254.306C1019.35 254.306 1019.81 254.759 1019.81 255.318C1019.81 255.647 1019.94 255.962 1020.17 256.194C1020.4 256.426 1020.72 256.557 1021.04 256.557C1021.6 256.557 1022.06 257.01 1022.06 257.569C1022.06 258.129 1021.6 258.582 1021.04 258.582C1020.72 258.582 1020.4 258.713 1020.17 258.945C1019.94 259.177 1019.81 259.492 1019.81 259.82C1019.81 260.38 1019.35 260.833 1018.79 260.833C1018.23 260.833 1017.78 260.38 1017.78 259.82C1017.78 259.492 1017.65 259.177 1017.42 258.945C1017.19 258.713 1016.87 258.582 1016.54 258.582C1015.98 258.582 1015.53 258.129 1015.53 257.569C1015.53 257.01 1015.98 256.557 1016.54 256.557C1016.87 256.557 1017.19 256.426 1017.42 256.194C1017.65 255.962 1017.78 255.647 1017.78 255.318C1017.78 254.759 1018.23 254.306 1018.79 254.306Z" fill="url('#paint18_linear_16_253')"/><rect x="836" y="388" width="262.468" height="114" rx="11" fill="url('#paint19_linear_16_253')"/><rect x="836" y="388" width="262.468" height="114" rx="11" stroke="url('#paint20_linear_16_253')" stroke-width="2"/><path d="M867.349 484.728C870.407 484.004 874.893 481.476 876.753 480.303L899.668 480.611L911.286 485.215C913.267 485.394 918.91 486.597 925.635 489.984C932.359 493.37 935.325 498.781 935.968 501.063L934.526 503H845.023C845.006 502.775 844.981 501.899 845.023 500.197C845.075 498.068 845.905 495.784 851.408 491.579C856.911 487.374 863.527 485.634 867.349 484.728Z" fill="url('#paint21_linear_16_253')"/><path d="M865.043 435.59C866.285 438.654 867.492 443.042 867.941 444.854L874.027 446.96C884.505 444.875 906.183 440.587 909.076 440.114C912.693 439.523 916.518 433.055 917.561 426.656C918.605 420.257 914.571 418.379 910.224 416.675C905.877 414.971 906.607 410.589 906.016 408.746C905.424 406.903 900.492 403.323 888.286 403.323C876.081 403.323 871.428 412.614 866.104 417.117C860.779 421.621 860.439 428.588 860.609 430.768C860.779 432.949 862.167 432.185 863.017 432.156C863.866 432.128 863.49 431.761 865.043 435.59Z" fill="url('#paint22_linear_16_253')"/><path d="M876.22 483.008V467.336H901.584C901.648 471.306 901.738 480.211 901.584 484.069C901.429 487.927 896.022 489.405 893.338 489.663C893.097 489.727 891.313 489.817 886.105 489.663C880.897 489.508 877.345 485.162 876.22 483.008Z" fill="url('#paint23_linear_16_253')"/><path d="M864.979 444.541C866.45 442.798 869.367 444.105 870.642 444.976C870.513 442.653 870.255 437.571 870.255 435.828C870.255 433.65 872.094 431.617 874.756 429.342C877.418 427.067 880.71 427.987 888.067 427.89C895.424 427.793 899.538 424.163 901.813 423.727C903.633 423.379 904.927 424.582 905.347 425.228C906.508 427.39 909.016 432.566 909.751 435.973C910.671 440.233 910.332 458.093 908.444 465.354C906.557 472.614 894.843 476.922 891.262 477.067C887.68 477.212 882.839 475.228 877.612 471.065C873.43 467.735 871.223 462.159 870.642 459.787C869.868 459.916 867.99 460.165 866.673 460.126C865.027 460.078 862.946 454.56 862.801 452.672C862.656 450.784 863.14 446.719 864.979 444.541Z" fill="url('#paint24_linear_16_253')"/><path d="M947.968 411.75L953.468 410.25H988.968L1074.47 410.75L1078.97 414.75V474.75L1076.82 478.25L968.815 479.75L947.968 478.25L946.968 466.75L945.968 417.25L947.968 411.75Z" fill="url('#paint25_linear_16_253')"/><rect x="946.468" y="410.25" width="133" height="69" rx="6" stroke="url('#paint26_linear_16_253')" stroke-width="3"/><rect x="1039.32" y="422.75" width="13" height="3" fill="#D9D9D9"/><rect x="1058.32" y="422.75" width="11" height="3" fill="#D9D9D9"/><rect x="1039.32" y="431.75" width="30" height="3" fill="#D9D9D9"/><rect x="995.66" y="463.312" width="14.6552" height="2.58621" fill="#D9D9D9"/><rect x="960.315" y="465.054" width="17.4107" height="2.58621" transform="rotate(-45 960.315 465.054)" fill="#D9D9D9"/><rect x="976.694" y="465.054" width="17.4107" height="2.58621" transform="rotate(-45 976.694 465.054)" fill="#D9D9D9"/><rect x="962.144" y="441.76" width="17.4107" height="2.58621" transform="rotate(45 962.144 441.76)" fill="#D9D9D9"/><rect x="978.523" y="441.76" width="17.4107" height="2.58621" transform="rotate(45 978.523 441.76)" fill="#D9D9D9"/><path d="M963.365 428.516V434.75H961.772V420.932H963.365V426.006H963.5C963.743 425.47 964.107 425.045 964.593 424.73C965.083 424.411 965.735 424.251 966.549 424.251C967.256 424.251 967.874 424.393 968.405 424.676C968.936 424.955 969.347 425.385 969.64 425.965C969.937 426.541 970.085 427.274 970.085 428.165V434.75H968.493V428.273C968.493 427.45 968.279 426.813 967.852 426.363C967.429 425.909 966.842 425.682 966.091 425.682C965.569 425.682 965.101 425.792 964.687 426.012C964.278 426.233 963.954 426.554 963.716 426.977C963.482 427.4 963.365 427.913 963.365 428.516ZM977.505 424.386V425.736H972.134V424.386H977.505ZM973.7 421.903H975.292V431.781C975.292 432.231 975.357 432.568 975.488 432.793C975.623 433.014 975.794 433.162 976.001 433.239C976.212 433.311 976.435 433.347 976.668 433.347C976.844 433.347 976.988 433.338 977.1 433.32C977.213 433.297 977.303 433.279 977.37 433.266L977.694 434.696C977.586 434.737 977.435 434.777 977.242 434.817C977.049 434.862 976.803 434.885 976.507 434.885C976.057 434.885 975.616 434.788 975.184 434.595C974.757 434.401 974.401 434.107 974.118 433.711C973.839 433.315 973.7 432.816 973.7 432.213V421.903ZM979.9 434.75V424.386H981.439V426.006H981.574C981.79 425.452 982.138 425.023 982.619 424.717C983.101 424.407 983.679 424.251 984.354 424.251C985.037 424.251 985.606 424.407 986.061 424.717C986.519 425.023 986.877 425.452 987.133 426.006H987.241C987.507 425.47 987.905 425.045 988.436 424.73C988.966 424.411 989.603 424.251 990.345 424.251C991.272 424.251 992.03 424.542 992.619 425.122C993.208 425.698 993.503 426.595 993.503 427.814V434.75H991.91V427.814C991.91 427.049 991.701 426.503 991.283 426.174C990.865 425.846 990.372 425.682 989.805 425.682C989.077 425.682 988.512 425.902 988.112 426.343C987.711 426.779 987.511 427.333 987.511 428.003V434.75H985.892V427.652C985.892 427.063 985.701 426.588 985.318 426.228C984.936 425.864 984.443 425.682 983.841 425.682C983.427 425.682 983.04 425.792 982.68 426.012C982.325 426.233 982.037 426.539 981.817 426.93C981.601 427.317 981.493 427.764 981.493 428.273V434.75H979.9ZM998.006 420.932V434.75H996.414V420.932H998.006Z" fill="#B398FF"/><path d="M298.897 81.7861L289.013 109H284.973L296.354 79.1406H298.959L298.897 81.7861ZM307.183 109L297.277 81.7861L297.216 79.1406H299.82L311.243 109H307.183ZM306.67 97.9463V101.187H289.895V97.9463H306.67ZM327.588 103.114C327.588 102.567 327.465 102.062 327.219 101.597C326.986 101.118 326.501 100.688 325.763 100.305C325.038 99.9082 323.944 99.5664 322.481 99.2793C321.251 99.0195 320.137 98.7119 319.139 98.3564C318.154 98.001 317.313 97.5703 316.616 97.0645C315.933 96.5586 315.406 95.9639 315.037 95.2803C314.668 94.5967 314.483 93.7969 314.483 92.8809C314.483 92.0059 314.675 91.1787 315.058 90.3994C315.454 89.6201 316.008 88.9297 316.719 88.3281C317.443 87.7266 318.312 87.2549 319.323 86.9131C320.335 86.5713 321.463 86.4004 322.707 86.4004C324.484 86.4004 326.002 86.7148 327.26 87.3438C328.518 87.9727 329.481 88.8135 330.151 89.8662C330.821 90.9053 331.156 92.0605 331.156 93.332H327.362C327.362 92.7168 327.178 92.1221 326.809 91.5479C326.453 90.96 325.927 90.4746 325.229 90.0918C324.546 89.709 323.705 89.5176 322.707 89.5176C321.654 89.5176 320.8 89.6816 320.144 90.0098C319.501 90.3242 319.029 90.7275 318.729 91.2197C318.441 91.7119 318.298 92.2314 318.298 92.7783C318.298 93.1885 318.366 93.5576 318.503 93.8857C318.653 94.2002 318.913 94.4941 319.282 94.7676C319.651 95.0273 320.171 95.2734 320.841 95.5059C321.511 95.7383 322.365 95.9707 323.404 96.2031C325.223 96.6133 326.72 97.1055 327.896 97.6797C329.071 98.2539 329.946 98.958 330.521 99.792C331.095 100.626 331.382 101.638 331.382 102.827C331.382 103.798 331.177 104.687 330.767 105.493C330.37 106.3 329.789 106.997 329.023 107.585C328.271 108.159 327.369 108.61 326.316 108.938C325.277 109.253 324.108 109.41 322.81 109.41C320.854 109.41 319.2 109.062 317.847 108.364C316.493 107.667 315.468 106.765 314.771 105.657C314.073 104.55 313.725 103.381 313.725 102.15H317.539C317.594 103.189 317.895 104.017 318.441 104.632C318.988 105.233 319.658 105.664 320.451 105.924C321.244 106.17 322.03 106.293 322.81 106.293C323.849 106.293 324.717 106.156 325.414 105.883C326.125 105.609 326.665 105.233 327.034 104.755C327.403 104.276 327.588 103.729 327.588 103.114ZM349.285 103.114C349.285 102.567 349.162 102.062 348.916 101.597C348.684 101.118 348.198 100.688 347.46 100.305C346.735 99.9082 345.642 99.5664 344.179 99.2793C342.948 99.0195 341.834 98.7119 340.836 98.3564C339.852 98.001 339.011 97.5703 338.313 97.0645C337.63 96.5586 337.104 95.9639 336.734 95.2803C336.365 94.5967 336.181 93.7969 336.181 92.8809C336.181 92.0059 336.372 91.1787 336.755 90.3994C337.151 89.6201 337.705 88.9297 338.416 88.3281C339.141 87.7266 340.009 87.2549 341.021 86.9131C342.032 86.5713 343.16 86.4004 344.404 86.4004C346.182 86.4004 347.699 86.7148 348.957 87.3438C350.215 87.9727 351.179 88.8135 351.849 89.8662C352.519 90.9053 352.854 92.0605 352.854 93.332H349.06C349.06 92.7168 348.875 92.1221 348.506 91.5479C348.15 90.96 347.624 90.4746 346.927 90.0918C346.243 89.709 345.402 89.5176 344.404 89.5176C343.352 89.5176 342.497 89.6816 341.841 90.0098C341.198 90.3242 340.727 90.7275 340.426 91.2197C340.139 91.7119 339.995 92.2314 339.995 92.7783C339.995 93.1885 340.063 93.5576 340.2 93.8857C340.351 94.2002 340.61 94.4941 340.979 94.7676C341.349 95.0273 341.868 95.2734 342.538 95.5059C343.208 95.7383 344.062 95.9707 345.102 96.2031C346.92 96.6133 348.417 97.1055 349.593 97.6797C350.769 98.2539 351.644 98.958 352.218 99.792C352.792 100.626 353.079 101.638 353.079 102.827C353.079 103.798 352.874 104.687 352.464 105.493C352.067 106.3 351.486 106.997 350.721 107.585C349.969 108.159 349.066 108.61 348.014 108.938C346.975 109.253 345.806 109.41 344.507 109.41C342.552 109.41 340.897 109.062 339.544 108.364C338.19 107.667 337.165 106.765 336.468 105.657C335.771 104.55 335.422 103.381 335.422 102.15H339.236C339.291 103.189 339.592 104.017 340.139 104.632C340.686 105.233 341.355 105.664 342.148 105.924C342.941 106.17 343.728 106.293 344.507 106.293C345.546 106.293 346.414 106.156 347.111 105.883C347.822 105.609 348.362 105.233 348.731 104.755C349.101 104.276 349.285 103.729 349.285 103.114ZM362.185 86.8105V109H358.37V86.8105H362.185ZM358.083 80.9248C358.083 80.3096 358.268 79.79 358.637 79.3662C359.02 78.9424 359.58 78.7305 360.318 78.7305C361.043 78.7305 361.597 78.9424 361.979 79.3662C362.376 79.79 362.574 80.3096 362.574 80.9248C362.574 81.5127 362.376 82.0186 361.979 82.4424C361.597 82.8525 361.043 83.0576 360.318 83.0576C359.58 83.0576 359.02 82.8525 358.637 82.4424C358.268 82.0186 358.083 81.5127 358.083 80.9248ZM381.195 103.114C381.195 102.567 381.072 102.062 380.826 101.597C380.594 101.118 380.108 100.688 379.37 100.305C378.646 99.9082 377.552 99.5664 376.089 99.2793C374.858 99.0195 373.744 98.7119 372.746 98.3564C371.762 98.001 370.921 97.5703 370.224 97.0645C369.54 96.5586 369.014 95.9639 368.645 95.2803C368.275 94.5967 368.091 93.7969 368.091 92.8809C368.091 92.0059 368.282 91.1787 368.665 90.3994C369.062 89.6201 369.615 88.9297 370.326 88.3281C371.051 87.7266 371.919 87.2549 372.931 86.9131C373.942 86.5713 375.07 86.4004 376.314 86.4004C378.092 86.4004 379.609 86.7148 380.867 87.3438C382.125 87.9727 383.089 88.8135 383.759 89.8662C384.429 90.9053 384.764 92.0605 384.764 93.332H380.97C380.97 92.7168 380.785 92.1221 380.416 91.5479C380.061 90.96 379.534 90.4746 378.837 90.0918C378.153 89.709 377.312 89.5176 376.314 89.5176C375.262 89.5176 374.407 89.6816 373.751 90.0098C373.108 90.3242 372.637 90.7275 372.336 91.2197C372.049 91.7119 371.905 92.2314 371.905 92.7783C371.905 93.1885 371.974 93.5576 372.11 93.8857C372.261 94.2002 372.521 94.4941 372.89 94.7676C373.259 95.0273 373.778 95.2734 374.448 95.5059C375.118 95.7383 375.973 95.9707 377.012 96.2031C378.83 96.6133 380.327 97.1055 381.503 97.6797C382.679 98.2539 383.554 98.958 384.128 99.792C384.702 100.626 384.989 101.638 384.989 102.827C384.989 103.798 384.784 104.687 384.374 105.493C383.978 106.3 383.396 106.997 382.631 107.585C381.879 108.159 380.977 108.61 379.924 108.938C378.885 109.253 377.716 109.41 376.417 109.41C374.462 109.41 372.808 109.062 371.454 108.364C370.101 107.667 369.075 106.765 368.378 105.657C367.681 104.55 367.332 103.381 367.332 102.15H371.146C371.201 103.189 371.502 104.017 372.049 104.632C372.596 105.233 373.266 105.664 374.059 105.924C374.852 106.17 375.638 106.293 376.417 106.293C377.456 106.293 378.324 106.156 379.021 105.883C379.732 105.609 380.272 105.233 380.642 104.755C381.011 104.276 381.195 103.729 381.195 103.114ZM399.263 86.8105V89.7227H387.266V86.8105H399.263ZM391.326 81.417H395.12V103.504C395.12 104.256 395.236 104.823 395.469 105.206C395.701 105.589 396.002 105.842 396.371 105.965C396.74 106.088 397.137 106.149 397.561 106.149C397.875 106.149 398.203 106.122 398.545 106.067C398.9 105.999 399.167 105.944 399.345 105.903L399.365 109C399.064 109.096 398.668 109.185 398.176 109.267C397.697 109.362 397.116 109.41 396.433 109.41C395.503 109.41 394.648 109.226 393.869 108.856C393.09 108.487 392.468 107.872 392.003 107.011C391.552 106.136 391.326 104.96 391.326 103.483V81.417ZM416.797 105.206V93.7832C416.797 92.9082 416.619 92.1494 416.264 91.5068C415.922 90.8506 415.402 90.3447 414.705 89.9893C414.008 89.6338 413.146 89.4561 412.121 89.4561C411.164 89.4561 410.323 89.6201 409.599 89.9482C408.888 90.2764 408.327 90.707 407.917 91.2402C407.521 91.7734 407.322 92.3477 407.322 92.9629H403.528C403.528 92.1699 403.733 91.3838 404.144 90.6045C404.554 89.8252 405.142 89.1211 405.907 88.4922C406.687 87.8496 407.616 87.3438 408.696 86.9746C409.79 86.5918 411.007 86.4004 412.347 86.4004C413.96 86.4004 415.382 86.6738 416.612 87.2207C417.856 87.7676 418.827 88.5947 419.524 89.7021C420.235 90.7959 420.591 92.1699 420.591 93.8242V104.16C420.591 104.898 420.652 105.685 420.775 106.519C420.912 107.353 421.11 108.07 421.37 108.672V109H417.412C417.221 108.562 417.07 107.981 416.961 107.257C416.852 106.519 416.797 105.835 416.797 105.206ZM417.453 95.5469L417.494 98.2129H413.659C412.579 98.2129 411.615 98.3018 410.768 98.4795C409.92 98.6436 409.209 98.8965 408.635 99.2383C408.061 99.5801 407.623 100.011 407.322 100.53C407.021 101.036 406.871 101.631 406.871 102.314C406.871 103.012 407.028 103.647 407.343 104.222C407.657 104.796 408.129 105.254 408.758 105.596C409.4 105.924 410.187 106.088 411.116 106.088C412.278 106.088 413.304 105.842 414.192 105.35C415.081 104.857 415.785 104.256 416.305 103.545C416.838 102.834 417.125 102.144 417.166 101.474L418.786 103.299C418.69 103.873 418.431 104.509 418.007 105.206C417.583 105.903 417.016 106.573 416.305 107.216C415.607 107.845 414.773 108.371 413.803 108.795C412.846 109.205 411.766 109.41 410.562 109.41C409.059 109.41 407.739 109.116 406.604 108.528C405.483 107.94 404.608 107.154 403.979 106.17C403.364 105.172 403.057 104.058 403.057 102.827C403.057 101.638 403.289 100.592 403.754 99.6895C404.219 98.7734 404.889 98.0146 405.764 97.4131C406.639 96.7979 407.691 96.333 408.922 96.0186C410.152 95.7041 411.526 95.5469 413.044 95.5469H417.453ZM430.353 91.5479V109H426.559V86.8105H430.147L430.353 91.5479ZM429.45 97.0645L427.871 97.0029C427.885 95.4854 428.11 94.084 428.548 92.7988C428.985 91.5 429.601 90.3721 430.394 89.415C431.187 88.458 432.13 87.7197 433.224 87.2002C434.331 86.667 435.555 86.4004 436.895 86.4004C437.988 86.4004 438.973 86.5508 439.848 86.8516C440.723 87.1387 441.468 87.6035 442.083 88.2461C442.712 88.8887 443.19 89.7227 443.519 90.748C443.847 91.7598 444.011 92.9971 444.011 94.46V109H440.196V94.4189C440.196 93.2568 440.025 92.3271 439.684 91.6299C439.342 90.9189 438.843 90.4062 438.187 90.0918C437.53 89.7637 436.724 89.5996 435.767 89.5996C434.823 89.5996 433.962 89.7979 433.183 90.1943C432.417 90.5908 431.754 91.1377 431.193 91.835C430.646 92.5322 430.216 93.332 429.901 94.2344C429.601 95.123 429.45 96.0664 429.45 97.0645ZM459.063 86.8105V89.7227H447.066V86.8105H459.063ZM451.127 81.417H454.921V103.504C454.921 104.256 455.037 104.823 455.27 105.206C455.502 105.589 455.803 105.842 456.172 105.965C456.541 106.088 456.938 106.149 457.361 106.149C457.676 106.149 458.004 106.122 458.346 106.067C458.701 105.999 458.968 105.944 459.146 105.903L459.166 109C458.865 109.096 458.469 109.185 457.977 109.267C457.498 109.362 456.917 109.41 456.233 109.41C455.304 109.41 454.449 109.226 453.67 108.856C452.891 108.487 452.269 107.872 451.804 107.011C451.353 106.136 451.127 104.96 451.127 103.483V81.417Z" fill="white"/><rect x="273.5" y="151.5" width="198" height="198" rx="14.5" fill="#573AE4"/><rect x="273.5" y="151.5" width="198" height="198" rx="14.5" stroke="#9648FF" stroke-width="3"/><path d="M412.458 197.222C414.741 197.222 416.592 199.073 416.592 201.356C416.592 202.696 417.124 203.981 418.072 204.928C419.019 205.876 420.304 206.408 421.644 206.408C423.927 206.408 425.778 208.259 425.778 210.542C425.778 212.825 423.927 214.675 421.644 214.675C420.304 214.675 419.019 215.208 418.072 216.155C417.124 217.103 416.592 218.388 416.592 219.727C416.592 222.01 414.741 223.861 412.458 223.861C410.175 223.861 408.325 222.01 408.325 219.727C408.325 218.388 407.792 217.103 406.845 216.155C405.897 215.208 404.612 214.675 403.272 214.675C400.99 214.675 399.139 212.825 399.139 210.542C399.139 208.259 400.99 206.408 403.272 206.408C404.612 206.408 405.897 205.876 406.845 204.928C407.792 203.981 408.325 202.696 408.325 201.356C408.325 199.073 410.175 197.222 412.458 197.222Z" fill="white"/><path fill-rule="evenodd" clip-rule="evenodd" d="M372.5 202.55C375.337 202.55 377.637 204.85 377.637 207.688C377.637 217.68 381.607 227.262 388.672 234.328C395.738 241.393 405.32 245.363 415.312 245.363C418.15 245.363 420.45 247.663 420.45 250.5C420.45 253.337 418.15 255.638 415.312 255.638C405.32 255.638 395.738 259.607 388.672 266.672C381.607 273.738 377.637 283.32 377.637 293.313C377.637 296.15 375.337 298.45 372.5 298.45C369.663 298.45 367.362 296.15 367.362 293.313C367.362 283.32 363.393 273.738 356.328 266.672C349.262 259.607 339.68 255.638 329.687 255.638C326.85 255.638 324.55 253.337 324.55 250.5C324.55 247.663 326.85 245.363 329.687 245.363C339.68 245.363 349.262 241.393 356.328 234.328C363.393 227.262 367.362 217.68 367.362 207.688C367.362 204.85 369.663 202.55 372.5 202.55ZM372.5 229.281C370.225 233.791 367.232 237.955 363.593 241.593C359.955 245.232 355.791 248.225 351.281 250.5C355.791 252.775 359.955 255.768 363.593 259.407C367.232 263.045 370.225 267.209 372.5 271.719C374.775 267.209 377.768 263.045 381.407 259.407C385.045 255.768 389.209 252.775 393.719 250.5C389.209 248.225 385.045 245.232 381.407 241.593C377.768 237.955 374.775 233.791 372.5 229.281Z" fill="white"/><path d="M140 251H272" stroke="url('#paint27_linear_16_253')" stroke-width="3"/><path d="M473 251H537" stroke="url('#paint28_linear_16_253')" stroke-width="3"/><rect x="1" y="181" width="139" height="139" rx="11" fill="url('#paint29_linear_16_253')"/><rect x="1" y="181" width="139" height="139" rx="11" stroke="url('#paint30_linear_16_253')" stroke-width="2"/><path d="M38.8334 226.75C38.8334 229.899 42.1697 232.92 48.1083 235.147C54.047 237.374 62.1015 238.625 70.5 238.625C78.8986 238.625 86.9531 237.374 92.8918 235.147C98.8304 232.92 102.167 229.899 102.167 226.75M38.8334 226.75C38.8334 223.601 42.1697 220.58 48.1083 218.353C54.047 216.126 62.1015 214.875 70.5 214.875C78.8986 214.875 86.9531 216.126 92.8918 218.353C98.8304 220.58 102.167 223.601 102.167 226.75M38.8334 226.75V250.5M102.167 226.75V250.5M38.8334 250.5C38.8334 253.649 42.1697 256.67 48.1083 258.897C54.047 261.124 62.1015 262.375 70.5 262.375C78.8986 262.375 86.9531 261.124 92.8918 258.897C98.8304 256.67 102.167 253.649 102.167 250.5M38.8334 250.5V274.25C38.8334 277.399 42.1697 280.42 48.1083 282.647C54.047 284.874 62.1015 286.125 70.5 286.125C78.8986 286.125 86.9531 284.874 92.8918 282.647C98.8304 280.42 102.167 277.399 102.167 274.25V250.5" stroke="url('#paint31_linear_16_253')" stroke-width="7" stroke-linecap="round" stroke-linejoin="round"/><rect x="169" y="213" width="75" height="75" rx="11" fill="url('#paint32_linear_16_253')"/><rect x="169" y="213" width="75" height="75" rx="11" stroke="url('#paint33_linear_16_253')" stroke-width="2"/><path d="M206.5 230.917C206.073 230.917 205.654 230.921 205.243 230.926L204.036 230.96L203.451 230.985L202.317 231.052L201.234 231.142C191.863 232.051 188.051 235.863 187.142 245.234L187.052 246.317L186.985 247.451C186.975 247.643 186.966 247.839 186.96 248.036L186.926 249.243L186.919 249.866L186.917 250.5C186.917 250.927 186.921 251.346 186.926 251.757L186.96 252.964L186.985 253.549L187.052 254.683L187.142 255.766C188.051 265.137 191.863 268.949 201.234 269.858L202.317 269.948L203.451 270.015C203.643 270.025 203.839 270.034 204.036 270.04L205.243 270.074L206.5 270.083L207.757 270.074L208.964 270.04L209.549 270.015L210.683 269.948L211.766 269.858C221.137 268.949 224.949 265.137 225.858 255.766L225.948 254.683L226.015 253.549C226.025 253.357 226.034 253.161 226.04 252.964L226.074 251.757L226.083 250.5L226.074 249.243L226.04 248.036L226.015 247.451L225.948 246.317L225.858 245.234C224.949 235.863 221.137 232.051 211.766 231.142L210.683 231.052L209.549 230.985C209.354 230.976 209.159 230.967 208.964 230.96L207.757 230.926L207.134 230.919L206.5 230.917ZM206.5 238.75C207.998 238.75 209.44 239.322 210.531 240.351C211.621 241.379 212.277 242.784 212.365 244.28L212.375 244.625V246.583C213.363 246.583 214.315 246.956 215.039 247.628C215.764 248.3 216.208 249.221 216.282 250.206L216.292 250.5V256.375C216.292 257.363 215.919 258.315 215.247 259.039C214.575 259.764 213.654 260.208 212.669 260.282L212.375 260.292H200.625C199.637 260.292 198.685 259.919 197.961 259.247C197.236 258.575 196.792 257.654 196.718 256.669L196.708 256.375V250.5C196.708 249.512 197.081 248.56 197.753 247.836C198.425 247.111 199.346 246.667 200.331 246.593L200.625 246.583V244.625C200.625 243.067 201.244 241.573 202.346 240.471C203.447 239.369 204.942 238.75 206.5 238.75ZM212.375 250.5H200.625V256.375H212.375V250.5ZM206.5 242.667C206.02 242.667 205.557 242.843 205.199 243.162C204.84 243.48 204.611 243.92 204.555 244.396L204.542 244.625V246.583H208.458V244.625C208.458 244.106 208.252 243.608 207.885 243.24C207.517 242.873 207.019 242.667 206.5 242.667Z" fill="url('#paint34_linear_16_253')"/><rect x="538" y="213" width="75" height="75" rx="11" fill="url('#paint35_linear_16_253')"/><rect x="538" y="213" width="75" height="75" rx="11" stroke="url('#paint36_linear_16_253')" stroke-width="2"/><path d="M563.399 236.615C571.033 231.201 581.943 231.643 589.001 237.665C596.182 243.789 597.163 253.798 591.257 260.963C585.691 267.714 575.659 269.938 567.304 266.457L566.85 266.259L558.282 268.082L558.135 268.107L557.92 268.125L557.699 268.117L557.613 268.107L557.397 268.068L557.192 268.002L556.996 267.916L556.847 267.833L556.635 267.682L556.477 267.538L556.334 267.375L556.23 267.228L556.103 267.003L556.02 266.795L555.96 266.574L555.934 266.427L555.917 266.212L555.925 265.99L555.934 265.904L555.973 265.689L556.017 265.548L558.269 258.79L558.226 258.719C553.898 251.381 555.858 242.285 562.947 236.946L563.398 236.617L563.399 236.615Z" fill="url('#paint37_linear_16_253')"/><path d="M614 233H664C675.046 233 684 224.046 684 213V80C684 68.9543 692.954 60 704 60H835" stroke="url('#paint38_linear_16_253')" stroke-width="3"/><path d="M614 273H664C675.046 273 684 281.954 684 293V425C684 436.046 692.954 445 704 445H835" stroke="url('#paint39_linear_16_253')" stroke-width="3"/><path d="M614 253H835" stroke="url('#paint40_linear_16_253')" stroke-width="3"/><path d="M800.5 59.5C793.5 62.5 802.5 66 797 66C791.5 66 779 63.0899 779 59.5C779 55.9101 787.059 53 797 53C800.5 53 800.5 55.9101 800.5 59.5Z" fill="url('#paint41_linear_16_253')"/><circle cx="797.5" cy="59.5" r="6.5" fill="#728DE2"/><circle cx="797.5" cy="59.5" r="3.5" fill="white"/><path d="M683.5 166.5C680.5 159.5 677 168.5 677 163C677 157.5 679.91 145 683.5 145C687.09 145 690 153.059 690 163C690 166.5 687.09 166.5 683.5 166.5Z" fill="url('#paint42_linear_16_253')"/><circle cx="683.5" cy="163.5" r="6.5" transform="rotate(90 683.5 163.5)" fill="#728DE2"/><circle cx="683.5" cy="163.5" r="3.5" transform="rotate(90 683.5 163.5)" fill="white"/><path d="M803.5 252.5C796.5 255.5 805.5 259 800 259C794.5 259 782 256.09 782 252.5C782 248.91 790.059 246 800 246C803.5 246 803.5 248.91 803.5 252.5Z" fill="url('#paint43_linear_16_253')"/><circle cx="800.5" cy="252.5" r="6.5" fill="#509CBB"/><circle cx="800.5" cy="252.5" r="3.5" fill="white"/><path d="M714.5 252.5C721.5 249.5 712.5 246 718 246C723.5 246 736 248.91 736 252.5C736 256.09 727.941 259 718 259C714.5 259 714.5 256.09 714.5 252.5Z" fill="url('#paint44_linear_16_253')"/><circle cx="717.5" cy="252.5" r="6.5" transform="rotate(-180 717.5 252.5)" fill="#509CBB"/><circle cx="717.5" cy="252.5" r="3.5" transform="rotate(-180 717.5 252.5)" fill="white"/><path d="M758.5 444.5C751.5 447.5 760.5 451 755 451C749.5 451 737 448.09 737 444.5C737 440.91 745.059 438 755 438C758.5 438 758.5 440.91 758.5 444.5Z" fill="url('#paint45_linear_16_253')"/><circle cx="755.5" cy="444.5" r="6.5" fill="#44E062"/><circle cx="755.5" cy="444.5" r="3.5" fill="white"/><path d="M676.328 275.609C682.818 279.595 680.483 270.225 683.657 274.717C686.83 279.209 691.667 291.097 688.735 293.168C685.803 295.24 678.776 290.338 673.039 282.219C671.02 279.36 673.396 277.681 676.328 275.609Z" fill="url('#paint46_linear_16_253')"/><circle cx="678.06" cy="278.059" r="6.5" transform="rotate(-125.245 678.06 278.059)" fill="#44E062"/><circle cx="678.059" cy="278.06" r="3.5" transform="rotate(-125.245 678.059 278.06)" fill="white"/><defs><linearGradient id="paint0_linear_16_253" x1="968.576" y1="0" x2="968.576" y2="116" gradientUnits="userSpaceOnUse"><stop stop-color="#13152A"/><stop offset="1" stop-color="#0E1322"/></linearGradient><linearGradient id="paint1_linear_16_253" x1="968.576" y1="0" x2="968.576" y2="116" gradientUnits="userSpaceOnUse"><stop stop-color="#422DF2"/><stop offset="1" stop-color="#5A56FC"/></linearGradient><linearGradient id="paint2_linear_16_253" x1="894.067" y1="105.527" x2="894.067" y2="83.2037" gradientUnits="userSpaceOnUse"><stop stop-color="#5F72A8"/><stop offset="1" stop-color="#3F4C74"/></linearGradient><linearGradient id="paint3_linear_16_253" x1="924.229" y1="38.9682" x2="866.85" y2="38.9682" gradientUnits="userSpaceOnUse"><stop stop-color="#1D2244"/><stop offset="1" stop-color="#1A1F3E"/></linearGradient><linearGradient id="paint4_linear_16_253" x1="917.846" y1="64.4049" x2="867.343" y2="64.4049" gradientUnits="userSpaceOnUse"><stop stop-color="#7082B9"/><stop offset="1" stop-color="#495989"/></linearGradient><linearGradient id="paint5_linear_16_253" x1="1015.15" y1="23.5" x2="1015.15" y2="80" gradientUnits="userSpaceOnUse"><stop stop-color="#0E1217"/><stop offset="1" stop-color="#0C0E10"/></linearGradient><linearGradient id="paint6_linear_16_253" x1="1015.65" y1="43.5" x2="1015.65" y2="92.5" gradientUnits="userSpaceOnUse"><stop stop-color="#122752"/><stop offset="1" stop-color="#0B1525"/></linearGradient><linearGradient id="paint7_linear_16_253" x1="1015.65" y1="23.5" x2="1015.65" y2="92.5" gradientUnits="userSpaceOnUse"><stop stop-color="#08265A"/><stop offset="1" stop-color="#171F27"/></linearGradient><linearGradient id="paint8_linear_16_253" x1="967.987" y1="195" x2="967.987" y2="311" gradientUnits="userSpaceOnUse"><stop stop-color="#13152A"/><stop offset="1" stop-color="#0E1322"/></linearGradient><linearGradient id="paint9_linear_16_253" x1="967.987" y1="195" x2="967.987" y2="311" gradientUnits="userSpaceOnUse"><stop stop-color="#4A34FE"/><stop offset="1" stop-color="#367FC7"/></linearGradient><linearGradient id="paint10_linear_16_253" x1="928.883" y1="262.253" x2="857.523" y2="262.253" gradientUnits="userSpaceOnUse"><stop stop-color="#272E40"/><stop offset="1" stop-color="#232939"/></linearGradient><linearGradient id="paint11_linear_16_253" x1="890.965" y1="286.03" x2="891.506" y2="311" gradientUnits="userSpaceOnUse"><stop stop-color="#356535"/><stop offset="1" stop-color="#273D25"/></linearGradient><linearGradient id="paint12_linear_16_253" x1="893.214" y1="293.054" x2="893.214" y2="276.91" gradientUnits="userSpaceOnUse"><stop stop-color="#697788"/><stop offset="1" stop-color="#454E5E"/></linearGradient><linearGradient id="paint13_linear_16_253" x1="917.039" y1="255.85" x2="875.21" y2="255.85" gradientUnits="userSpaceOnUse"><stop stop-color="#768396"/><stop offset="1" stop-color="#566575"/></linearGradient><linearGradient id="paint14_linear_16_253" x1="1014.22" y1="214.5" x2="1014.22" y2="291.5" gradientUnits="userSpaceOnUse"><stop stop-color="#47BA0E"/><stop offset="1" stop-color="#348D0D"/></linearGradient><linearGradient id="paint15_linear_16_253" x1="1014.22" y1="214.5" x2="1014.22" y2="291.5" gradientUnits="userSpaceOnUse"><stop stop-color="#6DF80B"/><stop offset="1" stop-color="#5BDD0C"/></linearGradient><linearGradient id="paint16_linear_16_253" x1="1014.88" y1="234.722" x2="1014.88" y2="272.583" gradientUnits="userSpaceOnUse"><stop stop-color="#185006"/><stop offset="1" stop-color="#103F08"/></linearGradient><linearGradient id="paint17_linear_16_253" x1="1014.88" y1="234.722" x2="1014.88" y2="272.583" gradientUnits="userSpaceOnUse"><stop stop-color="#185006"/><stop offset="1" stop-color="#103F08"/></linearGradient><linearGradient id="paint18_linear_16_253" x1="1014.88" y1="234.722" x2="1014.88" y2="272.583" gradientUnits="userSpaceOnUse"><stop stop-color="#185006"/><stop offset="1" stop-color="#103F08"/></linearGradient><linearGradient id="paint19_linear_16_253" x1="967.234" y1="387" x2="967.234" y2="503" gradientUnits="userSpaceOnUse"><stop stop-color="#13152A"/><stop offset="1" stop-color="#0E1322"/></linearGradient><linearGradient id="paint20_linear_16_253" x1="967.234" y1="387" x2="967.234" y2="503" gradientUnits="userSpaceOnUse"><stop stop-color="#298A3E"/><stop offset="1" stop-color="#3DBF17"/></linearGradient><linearGradient id="paint21_linear_16_253" x1="890.484" y1="480.303" x2="890.484" y2="503" gradientUnits="userSpaceOnUse"><stop stop-color="#2B383A"/><stop offset="1" stop-color="#21362D"/></linearGradient><linearGradient id="paint22_linear_16_253" x1="889.153" y1="403.323" x2="889.153" y2="446.96" gradientUnits="userSpaceOnUse"><stop stop-color="#222C37"/><stop offset="1" stop-color="#1A232A"/></linearGradient><linearGradient id="paint23_linear_16_253" x1="901.669" y1="484.857" x2="886.391" y2="465.48" gradientUnits="userSpaceOnUse"><stop stop-color="#4A565C"/><stop offset="1" stop-color="#3B464D"/></linearGradient><linearGradient id="paint24_linear_16_253" x1="910.242" y1="450.37" x2="862.777" y2="450.37" gradientUnits="userSpaceOnUse"><stop stop-color="#606D77"/><stop offset="1" stop-color="#404950"/></linearGradient><linearGradient id="paint25_linear_16_253" x1="1012.47" y1="410.25" x2="1012.47" y2="466.75" gradientUnits="userSpaceOnUse"><stop stop-color="#0E1217"/><stop offset="1" stop-color="#0C0E10"/></linearGradient><linearGradient id="paint26_linear_16_253" x1="1012.97" y1="410.25" x2="1012.97" y2="479.25" gradientUnits="userSpaceOnUse"><stop stop-color="#1F408E"/><stop offset="1" stop-color="#1A3C86"/></linearGradient><linearGradient id="paint27_linear_16_253" x1="140" y1="251.5" x2="272" y2="251.5" gradientUnits="userSpaceOnUse"><stop stop-color="#164B64"/><stop offset="1" stop-color="#253A7D"/></linearGradient><linearGradient id="paint28_linear_16_253" x1="473" y1="251.5" x2="537" y2="251.5" gradientUnits="userSpaceOnUse"><stop stop-color="#164B64"/><stop offset="1" stop-color="#253A7D"/></linearGradient><linearGradient id="paint29_linear_16_253" x1="70.5" y1="180" x2="70.5" y2="321" gradientUnits="userSpaceOnUse"><stop stop-color="#14222C"/><stop offset="1" stop-color="#0D0F12"/></linearGradient><linearGradient id="paint30_linear_16_253" x1="70.5" y1="180" x2="70.5" y2="321" gradientUnits="userSpaceOnUse"><stop stop-color="#33475E"/><stop offset="1" stop-color="#1F2833"/></linearGradient><linearGradient id="paint31_linear_16_253" x1="70.5" y1="214.875" x2="70.5" y2="286.125" gradientUnits="userSpaceOnUse"><stop stop-color="#8F9AA7"/><stop offset="1" stop-color="#2F373E"/></linearGradient><linearGradient id="paint32_linear_16_253" x1="206.5" y1="212" x2="206.5" y2="289" gradientUnits="userSpaceOnUse"><stop stop-color="#14222C"/><stop offset="1" stop-color="#0D0F12"/></linearGradient><linearGradient id="paint33_linear_16_253" x1="206.5" y1="212" x2="206.5" y2="289" gradientUnits="userSpaceOnUse"><stop stop-color="#33475E"/><stop offset="1" stop-color="#1F2833"/></linearGradient><linearGradient id="paint34_linear_16_253" x1="206.5" y1="230.917" x2="206.5" y2="270.083" gradientUnits="userSpaceOnUse"><stop stop-color="#7F8995"/><stop offset="1" stop-color="#2F373E"/></linearGradient><linearGradient id="paint35_linear_16_253" x1="575.5" y1="212" x2="575.5" y2="289" gradientUnits="userSpaceOnUse"><stop stop-color="#14222C"/><stop offset="1" stop-color="#0D0F12"/></linearGradient><linearGradient id="paint36_linear_16_253" x1="575.5" y1="212" x2="575.5" y2="289" gradientUnits="userSpaceOnUse"><stop stop-color="#33475E"/><stop offset="1" stop-color="#1F2833"/></linearGradient><linearGradient id="paint37_linear_16_253" x1="575.514" y1="232.833" x2="575.514" y2="268.125" gradientUnits="userSpaceOnUse"><stop stop-color="#7E8793"/><stop offset="1" stop-color="#313940"/></linearGradient><linearGradient id="paint38_linear_16_253" x1="724.5" y1="233" x2="724.5" y2="60" gradientUnits="userSpaceOnUse"><stop stop-color="#2E2183"/><stop offset="1" stop-color="#253A7D"/></linearGradient><linearGradient id="paint39_linear_16_253" x1="614" y1="359" x2="835" y2="359" gradientUnits="userSpaceOnUse"><stop stop-color="#247227"/><stop offset="1" stop-color="#1D4039"/></linearGradient><linearGradient id="paint40_linear_16_253" x1="614" y1="253.5" x2="835" y2="253.5" gradientUnits="userSpaceOnUse"><stop stop-color="#164B64"/><stop offset="1" stop-color="#253A7D"/></linearGradient><linearGradient id="paint41_linear_16_253" x1="793.5" y1="59.5" x2="779" y2="59.5" gradientUnits="userSpaceOnUse"><stop stop-color="#728DE2"/><stop offset="1" stop-color="#3E4D7C" stop-opacity="0"/></linearGradient><linearGradient id="paint42_linear_16_253" x1="683.5" y1="159.5" x2="683.5" y2="145" gradientUnits="userSpaceOnUse"><stop stop-color="#728DE2"/><stop offset="1" stop-color="#3E4D7C" stop-opacity="0"/></linearGradient><linearGradient id="paint43_linear_16_253" x1="796.5" y1="252.5" x2="782" y2="252.5" gradientUnits="userSpaceOnUse"><stop stop-color="#509CBB"/><stop offset="1" stop-color="#509CBB" stop-opacity="0"/></linearGradient><linearGradient id="paint44_linear_16_253" x1="721.5" y1="252.5" x2="736" y2="252.5" gradientUnits="userSpaceOnUse"><stop stop-color="#509CBB"/><stop offset="1" stop-color="#509CBB" stop-opacity="0"/></linearGradient><linearGradient id="paint45_linear_16_253" x1="751.5" y1="444.5" x2="737" y2="444.5" gradientUnits="userSpaceOnUse"><stop stop-color="#44E062"/><stop offset="1" stop-color="#44E062" stop-opacity="0"/></linearGradient><linearGradient id="paint46_linear_16_253" x1="680.368" y1="281.326" x2="688.735" y2="293.168" gradientUnits="userSpaceOnUse"><stop stop-color="#44E062"/><stop offset="1" stop-color="#44E062" stop-opacity="0"/></linearGradient></defs></svg>