<?xml version="1.0" encoding="utf-8" ?>
<!DOCTYPE svg PUBLIC "-//W3C//DTD SVG 1.1//EN" "http://www.w3.org/Graphics/SVG/1.1/DTD/svg11.dtd">
<svg xmlns="http://www.w3.org/2000/svg" width="1127" height="676" viewBox="0 0 1127 676" fill="none"><path d="M209.5 129.5H314C325.046 129.5 334 138.454 334 149.5V285C334 296.046 342.954 305 354 305H403" stroke="url('#paint0_linear_18_397')" stroke-width="4"/><path d="M881.5 129.5H777C765.954 129.5 757 138.454 757 149.5V285C757 296.046 748.046 305 737 305H688" stroke="url('#paint1_linear_18_397')" stroke-width="4"/><path d="M209 595H313.822C324.867 595 333.822 586.046 333.822 575V392C333.822 380.954 342.776 372 353.822 372H403" stroke="url('#paint2_linear_18_397')" stroke-width="4"/><path d="M882 595H777.178C766.133 595 757.178 586.046 757.178 575V392C757.178 380.954 748.224 372 737.178 372H688" stroke="url('#paint3_linear_18_397')" stroke-width="4"/><rect x="403.5" y="195.5" width="283" height="283" rx="14.5" fill="url('#paint4_radial_18_397')"/><rect x="403.5" y="195.5" width="283" height="283" rx="14.5" stroke="url('#paint5_linear_18_397')" stroke-width="3"/><path d="M602.167 260.778C605.433 260.778 608.08 263.426 608.08 266.692C608.08 268.609 608.842 270.447 610.198 271.803C611.553 273.158 613.391 273.92 615.308 273.92C618.575 273.92 621.222 276.567 621.222 279.833C621.222 283.099 618.575 285.747 615.308 285.747C613.391 285.747 611.553 286.509 610.198 287.864C608.842 289.22 608.08 291.058 608.08 292.975C608.08 296.241 605.433 298.889 602.167 298.889C598.901 298.889 596.253 296.241 596.253 292.975C596.253 291.058 595.491 289.22 594.136 287.864C592.78 286.509 590.942 285.747 589.025 285.747C585.759 285.747 583.111 283.099 583.111 279.833C583.111 276.567 585.759 273.92 589.025 273.92C590.942 273.92 592.78 273.158 594.136 271.803C595.491 270.447 596.253 268.609 596.253 266.692C596.253 263.426 598.901 260.778 602.167 260.778Z" fill="white"/><path fill-rule="evenodd" clip-rule="evenodd" d="M545 268.4C549.059 268.4 552.35 271.691 552.35 275.75C552.35 290.045 558.029 303.755 568.137 313.863C578.245 323.971 591.955 329.65 606.25 329.65C610.309 329.65 613.6 332.941 613.6 337C613.6 341.059 610.309 344.35 606.25 344.35C591.955 344.35 578.245 350.029 568.137 360.137C558.029 370.245 552.35 383.955 552.35 398.25C552.35 402.309 549.059 405.6 545 405.6C540.941 405.6 537.65 402.309 537.65 398.25C537.65 383.955 531.971 370.245 521.863 360.137C511.755 350.029 498.045 344.35 483.75 344.35C479.691 344.35 476.4 341.059 476.4 337C476.4 332.941 479.691 329.65 483.75 329.65C498.045 329.65 511.755 323.971 521.863 313.863C531.971 303.755 537.65 290.045 537.65 275.75C537.65 271.691 540.941 268.4 545 268.4ZM545 306.644C541.746 313.096 537.463 319.052 532.258 324.258C527.052 329.463 521.096 333.746 514.643 337C521.096 340.254 527.052 344.537 532.258 349.743C537.463 354.948 541.746 360.904 545 367.357C548.254 360.904 552.537 354.948 557.743 349.743C562.948 344.537 568.904 340.254 575.357 337C568.904 333.746 562.948 329.463 557.743 324.258C552.537 319.052 548.254 313.096 545 306.644Z" fill="white"/><path d="M471.397 522.786L461.513 550H457.473L468.854 520.141H471.459L471.397 522.786ZM479.683 550L469.777 522.786L469.716 520.141H472.32L483.743 550H479.683ZM479.17 538.946V542.187H462.395V538.946H479.17ZM500.088 544.114C500.088 543.567 499.965 543.062 499.719 542.597C499.486 542.118 499.001 541.688 498.263 541.305C497.538 540.908 496.444 540.566 494.981 540.279C493.751 540.02 492.637 539.712 491.639 539.356C490.654 539.001 489.813 538.57 489.116 538.064C488.433 537.559 487.906 536.964 487.537 536.28C487.168 535.597 486.983 534.797 486.983 533.881C486.983 533.006 487.175 532.179 487.558 531.399C487.954 530.62 488.508 529.93 489.219 529.328C489.943 528.727 490.812 528.255 491.823 527.913C492.835 527.571 493.963 527.4 495.207 527.4C496.984 527.4 498.502 527.715 499.76 528.344C501.018 528.973 501.981 529.813 502.651 530.866C503.321 531.905 503.656 533.061 503.656 534.332H499.862C499.862 533.717 499.678 533.122 499.309 532.548C498.953 531.96 498.427 531.475 497.729 531.092C497.046 530.709 496.205 530.518 495.207 530.518C494.154 530.518 493.3 530.682 492.644 531.01C492.001 531.324 491.529 531.728 491.229 532.22C490.941 532.712 490.798 533.231 490.798 533.778C490.798 534.188 490.866 534.558 491.003 534.886C491.153 535.2 491.413 535.494 491.782 535.768C492.151 536.027 492.671 536.273 493.341 536.506C494.011 536.738 494.865 536.971 495.904 537.203C497.723 537.613 499.22 538.105 500.396 538.68C501.571 539.254 502.446 539.958 503.021 540.792C503.595 541.626 503.882 542.638 503.882 543.827C503.882 544.798 503.677 545.687 503.267 546.493C502.87 547.3 502.289 547.997 501.523 548.585C500.771 549.159 499.869 549.61 498.816 549.938C497.777 550.253 496.608 550.41 495.31 550.41C493.354 550.41 491.7 550.062 490.347 549.364C488.993 548.667 487.968 547.765 487.271 546.657C486.573 545.55 486.225 544.381 486.225 543.15H490.039C490.094 544.189 490.395 545.017 490.941 545.632C491.488 546.233 492.158 546.664 492.951 546.924C493.744 547.17 494.53 547.293 495.31 547.293C496.349 547.293 497.217 547.156 497.914 546.883C498.625 546.609 499.165 546.233 499.534 545.755C499.903 545.276 500.088 544.729 500.088 544.114ZM521.785 544.114C521.785 543.567 521.662 543.062 521.416 542.597C521.184 542.118 520.698 541.688 519.96 541.305C519.235 540.908 518.142 540.566 516.679 540.279C515.448 540.02 514.334 539.712 513.336 539.356C512.352 539.001 511.511 538.57 510.813 538.064C510.13 537.559 509.604 536.964 509.234 536.28C508.865 535.597 508.681 534.797 508.681 533.881C508.681 533.006 508.872 532.179 509.255 531.399C509.651 530.62 510.205 529.93 510.916 529.328C511.641 528.727 512.509 528.255 513.521 527.913C514.532 527.571 515.66 527.4 516.904 527.4C518.682 527.4 520.199 527.715 521.457 528.344C522.715 528.973 523.679 529.813 524.349 530.866C525.019 531.905 525.354 533.061 525.354 534.332H521.56C521.56 533.717 521.375 533.122 521.006 532.548C520.65 531.96 520.124 531.475 519.427 531.092C518.743 530.709 517.902 530.518 516.904 530.518C515.852 530.518 514.997 530.682 514.341 531.01C513.698 531.324 513.227 531.728 512.926 532.22C512.639 532.712 512.495 533.231 512.495 533.778C512.495 534.188 512.563 534.558 512.7 534.886C512.851 535.2 513.11 535.494 513.479 535.768C513.849 536.027 514.368 536.273 515.038 536.506C515.708 536.738 516.562 536.971 517.602 537.203C519.42 537.613 520.917 538.105 522.093 538.68C523.269 539.254 524.144 539.958 524.718 540.792C525.292 541.626 525.579 542.638 525.579 543.827C525.579 544.798 525.374 545.687 524.964 546.493C524.567 547.3 523.986 547.997 523.221 548.585C522.469 549.159 521.566 549.61 520.514 549.938C519.475 550.253 518.306 550.41 517.007 550.41C515.052 550.41 513.397 550.062 512.044 549.364C510.69 548.667 509.665 547.765 508.968 546.657C508.271 545.55 507.922 544.381 507.922 543.15H511.736C511.791 544.189 512.092 545.017 512.639 545.632C513.186 546.233 513.855 546.664 514.648 546.924C515.441 547.17 516.228 547.293 517.007 547.293C518.046 547.293 518.914 547.156 519.611 546.883C520.322 546.609 520.862 546.233 521.231 545.755C521.601 545.276 521.785 544.729 521.785 544.114ZM534.685 527.811V550H530.87V527.811H534.685ZM530.583 521.925C530.583 521.31 530.768 520.79 531.137 520.366C531.52 519.942 532.08 519.73 532.818 519.73C533.543 519.73 534.097 519.942 534.479 520.366C534.876 520.79 535.074 521.31 535.074 521.925C535.074 522.513 534.876 523.019 534.479 523.442C534.097 523.853 533.543 524.058 532.818 524.058C532.08 524.058 531.52 523.853 531.137 523.442C530.768 523.019 530.583 522.513 530.583 521.925ZM553.695 544.114C553.695 543.567 553.572 543.062 553.326 542.597C553.094 542.118 552.608 541.688 551.87 541.305C551.146 540.908 550.052 540.566 548.589 540.279C547.358 540.02 546.244 539.712 545.246 539.356C544.262 539.001 543.421 538.57 542.724 538.064C542.04 537.559 541.514 536.964 541.145 536.28C540.775 535.597 540.591 534.797 540.591 533.881C540.591 533.006 540.782 532.179 541.165 531.399C541.562 530.62 542.115 529.93 542.826 529.328C543.551 528.727 544.419 528.255 545.431 527.913C546.442 527.571 547.57 527.4 548.814 527.4C550.592 527.4 552.109 527.715 553.367 528.344C554.625 528.973 555.589 529.813 556.259 530.866C556.929 531.905 557.264 533.061 557.264 534.332H553.47C553.47 533.717 553.285 533.122 552.916 532.548C552.561 531.96 552.034 531.475 551.337 531.092C550.653 530.709 549.812 530.518 548.814 530.518C547.762 530.518 546.907 530.682 546.251 531.01C545.608 531.324 545.137 531.728 544.836 532.22C544.549 532.712 544.405 533.231 544.405 533.778C544.405 534.188 544.474 534.558 544.61 534.886C544.761 535.2 545.021 535.494 545.39 535.768C545.759 536.027 546.278 536.273 546.948 536.506C547.618 536.738 548.473 536.971 549.512 537.203C551.33 537.613 552.827 538.105 554.003 538.68C555.179 539.254 556.054 539.958 556.628 540.792C557.202 541.626 557.489 542.638 557.489 543.827C557.489 544.798 557.284 545.687 556.874 546.493C556.478 547.3 555.896 547.997 555.131 548.585C554.379 549.159 553.477 549.61 552.424 549.938C551.385 550.253 550.216 550.41 548.917 550.41C546.962 550.41 545.308 550.062 543.954 549.364C542.601 548.667 541.575 547.765 540.878 546.657C540.181 545.55 539.832 544.381 539.832 543.15H543.646C543.701 544.189 544.002 545.017 544.549 545.632C545.096 546.233 545.766 546.664 546.559 546.924C547.352 547.17 548.138 547.293 548.917 547.293C549.956 547.293 550.824 547.156 551.521 546.883C552.232 546.609 552.772 546.233 553.142 545.755C553.511 545.276 553.695 544.729 553.695 544.114ZM571.763 527.811V530.723H559.766V527.811H571.763ZM563.826 522.417H567.62V544.504C567.62 545.256 567.736 545.823 567.969 546.206C568.201 546.589 568.502 546.842 568.871 546.965C569.24 547.088 569.637 547.149 570.061 547.149C570.375 547.149 570.703 547.122 571.045 547.067C571.4 546.999 571.667 546.944 571.845 546.903L571.865 550C571.564 550.096 571.168 550.185 570.676 550.267C570.197 550.362 569.616 550.41 568.933 550.41C568.003 550.41 567.148 550.226 566.369 549.856C565.59 549.487 564.968 548.872 564.503 548.011C564.052 547.136 563.826 545.96 563.826 544.483V522.417ZM589.297 546.206V534.783C589.297 533.908 589.119 533.149 588.764 532.507C588.422 531.851 587.902 531.345 587.205 530.989C586.508 530.634 585.646 530.456 584.621 530.456C583.664 530.456 582.823 530.62 582.099 530.948C581.388 531.276 580.827 531.707 580.417 532.24C580.021 532.773 579.822 533.348 579.822 533.963H576.028C576.028 533.17 576.233 532.384 576.644 531.604C577.054 530.825 577.642 530.121 578.407 529.492C579.187 528.85 580.116 528.344 581.196 527.975C582.29 527.592 583.507 527.4 584.847 527.4C586.46 527.4 587.882 527.674 589.112 528.221C590.356 528.768 591.327 529.595 592.024 530.702C592.735 531.796 593.091 533.17 593.091 534.824V545.16C593.091 545.898 593.152 546.685 593.275 547.519C593.412 548.353 593.61 549.07 593.87 549.672V550H589.912C589.721 549.562 589.57 548.981 589.461 548.257C589.352 547.519 589.297 546.835 589.297 546.206ZM589.953 536.547L589.994 539.213H586.159C585.079 539.213 584.115 539.302 583.268 539.479C582.42 539.644 581.709 539.896 581.135 540.238C580.561 540.58 580.123 541.011 579.822 541.53C579.521 542.036 579.371 542.631 579.371 543.314C579.371 544.012 579.528 544.647 579.843 545.222C580.157 545.796 580.629 546.254 581.258 546.596C581.9 546.924 582.687 547.088 583.616 547.088C584.778 547.088 585.804 546.842 586.692 546.35C587.581 545.857 588.285 545.256 588.805 544.545C589.338 543.834 589.625 543.144 589.666 542.474L591.286 544.299C591.19 544.873 590.931 545.509 590.507 546.206C590.083 546.903 589.516 547.573 588.805 548.216C588.107 548.845 587.273 549.371 586.303 549.795C585.346 550.205 584.266 550.41 583.062 550.41C581.559 550.41 580.239 550.116 579.104 549.528C577.983 548.94 577.108 548.154 576.479 547.17C575.864 546.172 575.557 545.058 575.557 543.827C575.557 542.638 575.789 541.592 576.254 540.689C576.719 539.773 577.389 539.015 578.264 538.413C579.139 537.798 580.191 537.333 581.422 537.019C582.652 536.704 584.026 536.547 585.544 536.547H589.953ZM602.853 532.548V550H599.059V527.811H602.647L602.853 532.548ZM601.95 538.064L600.371 538.003C600.385 536.485 600.61 535.084 601.048 533.799C601.485 532.5 602.101 531.372 602.894 530.415C603.687 529.458 604.63 528.72 605.724 528.2C606.831 527.667 608.055 527.4 609.395 527.4C610.488 527.4 611.473 527.551 612.348 527.852C613.223 528.139 613.968 528.604 614.583 529.246C615.212 529.889 615.69 530.723 616.019 531.748C616.347 532.76 616.511 533.997 616.511 535.46V550H612.696V535.419C612.696 534.257 612.525 533.327 612.184 532.63C611.842 531.919 611.343 531.406 610.687 531.092C610.03 530.764 609.224 530.6 608.267 530.6C607.323 530.6 606.462 530.798 605.683 531.194C604.917 531.591 604.254 532.138 603.693 532.835C603.146 533.532 602.716 534.332 602.401 535.234C602.101 536.123 601.95 537.066 601.95 538.064ZM631.563 527.811V530.723H619.566V527.811H631.563ZM623.627 522.417H627.421V544.504C627.421 545.256 627.537 545.823 627.77 546.206C628.002 546.589 628.303 546.842 628.672 546.965C629.041 547.088 629.438 547.149 629.861 547.149C630.176 547.149 630.504 547.122 630.846 547.067C631.201 546.999 631.468 546.944 631.646 546.903L631.666 550C631.365 550.096 630.969 550.185 630.477 550.267C629.998 550.362 629.417 550.41 628.733 550.41C627.804 550.41 626.949 550.226 626.17 549.856C625.391 549.487 624.769 548.872 624.304 548.011C623.853 547.136 623.627 545.96 623.627 544.483V522.417Z" fill="white"/><rect x="2" y="53" width="206" height="157" rx="13" fill="url('#paint6_linear_18_397')" stroke="url('#paint7_linear_18_397')" stroke-width="3"/><path d="M89.625 141.583L74.5 131.5V106.292M29.125 131.5C29.125 137.459 30.2987 143.359 32.579 148.864C34.8593 154.369 38.2016 159.372 42.415 163.585C46.6285 167.798 51.6306 171.141 57.1357 173.421C62.6409 175.701 68.5413 176.875 74.5 176.875C80.4587 176.875 86.3591 175.701 91.8643 173.421C97.3694 171.141 102.372 167.798 106.585 163.585C110.798 159.372 114.141 154.369 116.421 148.864C118.701 143.359 119.875 137.459 119.875 131.5C119.875 125.541 118.701 119.641 116.421 114.136C114.141 108.631 110.798 103.628 106.585 99.415C102.372 95.2016 97.3694 91.8593 91.8643 89.579C86.3591 87.2987 80.4587 86.125 74.5 86.125C68.5413 86.125 62.6409 87.2987 57.1357 89.579C51.6306 91.8593 46.6285 95.2016 42.415 99.415C38.2016 103.628 34.8593 108.631 32.579 114.136C30.2987 119.641 29.125 125.541 29.125 131.5Z" stroke="url('#paint8_linear_18_397')" stroke-width="7" stroke-linecap="round" stroke-linejoin="round"/><rect x="153.5" y="134.5" width="9" height="44" rx="2.5" fill="url('#paint9_linear_18_397')" stroke="#17245B"/><rect x="177.5" y="105.5" width="9" height="73" rx="2.5" fill="url('#paint10_linear_18_397')" stroke="#17245B"/><g clip-path="url('#clip0_18_397')"><rect x="105" width="86" height="86" rx="43" fill="url('#paint11_linear_18_397')"/><path d="M134.031 73.4194C138.057 72.413 143.802 70.9452 146.172 70.3372C149.275 70.5259 155.783 70.9033 156.991 70.9033C158.501 70.9033 167.622 74.4888 174.038 77.0678C179.171 79.131 180.286 83.8823 180.202 86.0001H115.978C115.685 85.5807 115.525 83.9243 117.236 80.6533C119.375 76.5646 128.999 74.6775 134.031 73.4194Z" fill="#17244B"/><path d="M140.305 74.6816V63.4432L158.777 63.7617V74.3701C157.557 75.698 153.996 78.4374 149.512 78.7709C145.028 79.1045 141.505 76.1836 140.305 74.6816Z" fill="url('#paint12_linear_18_397')"/><path d="M131.891 29.917C129.456 34.0366 131.742 42.1413 133.19 45.6787L136.951 47.6489C144.713 46.4996 161.266 43.6279 165.385 41.3353C170.534 38.4695 170.758 33.4992 169.908 30.1857C169.057 26.8721 162.833 18.857 152.444 18.4092C142.056 17.9614 134.936 24.7676 131.891 29.917Z" fill="url('#paint13_linear_18_397')"/><path d="M140.183 41.5125C140.019 44.0264 137.792 45.4291 136.699 45.8162C136.472 45.0648 135.579 43.6165 133.83 43.8351C131.644 44.1084 131.098 48.4804 131.166 50.3249C131.234 52.1693 132.122 54.2187 133.215 56.0632C134.09 57.5387 135.902 57.2701 136.699 56.9513C137.2 58.0215 138.448 60.7905 139.432 63.3044C140.662 66.4468 148.313 68.7011 150.157 68.8377C152.002 68.9744 154.119 68.6328 157.945 67.0616C161.77 65.4904 164.503 59.1373 165.664 48.4804C166.593 39.9549 164.503 36.093 163.342 35.2277C161.907 35.3415 158.218 35.5692 154.939 35.5692H140.935C140.753 36.5028 140.347 38.9986 140.183 41.5125Z" fill="url('#paint14_linear_18_397')"/></g><rect x="3" y="517" width="206" height="157" rx="13" fill="url('#paint15_linear_18_397')" stroke="url('#paint16_linear_18_397')" stroke-width="3"/><rect x="154.5" y="598.5" width="9" height="44" rx="2.5" fill="url('#paint17_linear_18_397')" stroke="#17245B"/><rect x="178.5" y="569.5" width="9" height="73" rx="2.5" fill="url('#paint18_linear_18_397')" stroke="#17245B"/><path d="M50.2917 635.833H100.708M45.25 565.25L75.5 560.208L105.75 565.25M45.25 565.25L60.375 595.5C60.375 599.511 58.7815 603.359 55.945 606.195C53.1085 609.031 49.2614 610.625 45.25 610.625C41.2386 610.625 37.3915 609.031 34.555 606.195C31.7185 603.359 30.125 599.511 30.125 595.5L45.25 565.25ZM105.75 565.25L120.875 595.5C120.875 599.511 119.281 603.359 116.445 606.195C113.609 609.031 109.761 610.625 105.75 610.625C101.739 610.625 97.8915 609.031 95.055 606.195C92.2185 603.359 90.625 599.511 90.625 595.5L105.75 565.25ZM75.5 550.125V635.833" stroke="url('#paint19_linear_18_397')" stroke-width="7" stroke-linecap="round" stroke-linejoin="round"/><rect x="106" y="464" width="86" height="86" rx="43" fill="url('#paint20_linear_18_397')"/><path d="M122.478 535.823C122.871 536.798 122.072 541.145 121.623 543.196L169.546 539.142C170.232 537.367 171.676 533.43 171.967 531.881C172.33 529.944 171.12 529.097 171.12 527.645C171.12 526.193 172.33 525.588 173.782 524.075C175.234 522.562 174.932 519.113 174.75 516.693C174.569 514.272 170.938 509.613 169.546 506.588C168.155 503.562 168.578 499.387 168.518 495.999C168.457 492.61 167.005 488.253 161.741 484.26C156.476 480.266 147.823 482.202 140.441 485.167C133.059 488.132 131.062 495.575 131.062 498.056C131.062 500.041 133.563 502.796 134.814 503.925C134.35 503.865 133.132 503.78 131.97 503.925C130.518 504.107 129.308 505.62 128.339 507.193C127.371 508.766 126.827 511.065 126.343 513.909C125.859 516.753 126.706 518.508 126.827 523.167C126.948 527.826 124.104 530.973 122.773 532.584C121.441 534.194 121.986 534.604 122.478 535.823Z" fill="url('#paint21_linear_18_397')"/><path d="M137.077 535.823C139.368 535.147 141.099 533.382 141.678 532.584L158.343 532.959C158.844 533.116 160.23 533.588 161.77 534.227C163.695 535.025 175.055 540.236 178.576 543.522C181.392 546.151 181.439 548.936 181.111 550H116.751V547.653C116.751 546.526 119.333 543.756 122.478 541.409C125.623 539.062 134.214 536.668 137.077 535.823Z" fill="url('#paint22_linear_18_397')"/><path d="M140.983 537.314V522.159L159.622 524.249C159.738 528.43 159.9 537.383 159.622 539.752C159.343 542.121 155.944 542.675 154.28 542.655C154.589 542.675 154.036 542.702 149.344 542.655C144.653 542.609 141.816 539.075 140.983 537.314Z" fill="url('#paint23_linear_18_397')"/><path d="M139.734 522.133C138.051 519.327 137.763 513.28 137.83 510.607C137.717 506.735 138.883 503.542 139.283 502.089C139.604 500.926 141.589 500.368 142.541 500.235C143.76 500.101 147.291 499.423 151.661 497.779C157.123 495.725 157.975 494.823 158.576 493.821C159.057 493.019 159.612 493.119 159.829 493.269C161.883 495.073 166.133 499.483 166.694 502.69C167.395 506.699 166.944 516.22 164.639 522.133C162.334 528.046 157.073 529.8 152.663 529.9C148.253 530 141.839 525.641 139.734 522.133Z" fill="url('#paint24_linear_18_397')"/><rect x="141" y="565" width="91" height="82" rx="10" fill="url('#paint25_linear_18_397')" stroke="url('#paint26_linear_18_397')" stroke-width="3"/><rect x="157" y="591" width="60" height="10" rx="3" fill="url('#paint27_linear_18_397')"/><rect x="157" y="612" width="40" height="10" rx="3" fill="url('#paint28_linear_18_397')"/><rect x="881" y="53" width="206" height="157" rx="13" fill="url('#paint29_linear_18_397')" stroke="url('#paint30_linear_18_397')" stroke-width="3"/><rect x="1032.5" y="134.5" width="9" height="44" rx="2.5" fill="url('#paint31_linear_18_397')" stroke="#216126"/><rect x="1056.5" y="105.5" width="9" height="73" rx="2.5" fill="url('#paint32_linear_18_397')" stroke="#216126"/><path d="M911.167 135.5L926.292 115.333L946.458 125.417L971.667 95.1666L991.833 115.333M911.167 170.792L931.333 140.542L951.5 150.625L971.667 125.417L991.833 145.583V170.792H911.167Z" stroke="url('#paint33_linear_18_397')" stroke-width="7" stroke-linecap="round" stroke-linejoin="round"/><g clip-path="url('#clip1_18_397')"><rect x="984" width="86" height="86" rx="43" fill="url('#paint34_linear_18_397')"/><path d="M1013.03 73.4194C1017.06 72.413 1022.8 70.9452 1025.17 70.3372C1028.27 70.5259 1034.78 70.9033 1035.99 70.9033C1037.5 70.9033 1046.62 74.4888 1053.04 77.0678C1058.17 79.131 1059.29 83.8823 1059.2 86.0001H994.978C994.684 85.5807 994.525 83.9243 996.236 80.6533C998.375 76.5646 1008 74.6775 1013.03 73.4194Z" fill="#17244B"/><path d="M1019.3 74.6816V63.4432L1037.78 63.7617V74.3701C1036.56 75.698 1033 78.4374 1028.51 78.7709C1024.03 79.1045 1020.51 76.1836 1019.3 74.6816Z" fill="url('#paint35_linear_18_397')"/><path d="M1010.89 29.917C1008.46 34.0366 1010.74 42.1413 1012.19 45.6787L1015.95 47.6489C1023.71 46.4996 1040.27 43.6279 1044.38 41.3353C1049.53 38.4695 1049.76 33.4992 1048.91 30.1857C1048.06 26.8721 1041.83 18.857 1031.44 18.4092C1021.06 17.9614 1013.94 24.7676 1010.89 29.917Z" fill="url('#paint36_linear_18_397')"/><path d="M1019.18 41.5125C1019.02 44.0264 1016.79 45.4291 1015.7 45.8162C1015.47 45.0648 1014.58 43.6165 1012.83 43.8351C1010.64 44.1084 1010.1 48.4804 1010.17 50.3249C1010.23 52.1693 1011.12 54.2187 1012.22 56.0632C1013.09 57.5387 1014.9 57.2701 1015.7 56.9513C1016.2 58.0215 1017.45 60.7905 1018.43 63.3044C1019.66 66.4468 1027.31 68.7011 1029.16 68.8377C1031 68.9744 1033.12 68.6328 1036.94 67.0616C1040.77 65.4904 1043.5 59.1373 1044.66 48.4804C1045.59 39.9549 1043.5 36.093 1042.34 35.2277C1040.91 35.3415 1037.22 35.5692 1033.94 35.5692H1019.93C1019.75 36.5028 1019.35 38.9986 1019.18 41.5125Z" fill="url('#paint37_linear_18_397')"/></g><rect x="881" y="517" width="206" height="157" rx="13" fill="url('#paint38_linear_18_397')" stroke="url('#paint39_linear_18_397')" stroke-width="3"/><path d="M953.5 630.791C946.602 626.809 938.777 624.712 930.812 624.712C922.848 624.712 915.023 626.809 908.125 630.791V565.25C915.023 561.267 922.848 559.171 930.812 559.171C938.777 559.171 946.602 561.267 953.5 565.25M953.5 630.791C960.398 626.809 968.223 624.712 976.188 624.712C984.152 624.712 991.977 626.809 998.875 630.791V565.25C991.977 561.267 984.152 559.171 976.188 559.171C968.223 559.171 960.398 561.267 953.5 565.25M953.5 630.791V565.25" stroke="url('#paint40_linear_18_397')" stroke-width="7" stroke-linecap="round" stroke-linejoin="round"/><g clip-path="url('#clip2_18_397')"><rect x="984" y="464" width="86" height="86" rx="43" fill="url('#paint41_linear_18_397')"/><path d="M1013.03 537.419C1017.06 536.413 1022.8 534.945 1025.17 534.337C1028.27 534.526 1034.78 534.903 1035.99 534.903C1037.5 534.903 1046.62 538.489 1053.04 541.068C1058.17 543.131 1059.29 547.882 1059.2 550H994.978C994.684 549.581 994.525 547.924 996.236 544.653C998.375 540.565 1008 538.677 1013.03 537.419Z" fill="#17244B"/><path d="M1019.3 538.682V527.443L1037.78 527.762V538.37C1036.56 539.698 1033 542.437 1028.51 542.771C1024.03 543.104 1020.51 540.184 1019.3 538.682Z" fill="url('#paint42_linear_18_397')"/><path d="M1010.89 493.917C1008.46 498.037 1010.74 506.141 1012.19 509.679L1015.95 511.649C1023.71 510.5 1040.27 507.628 1044.38 505.335C1049.53 502.47 1049.76 497.499 1048.91 494.186C1048.06 490.872 1041.83 482.857 1031.44 482.409C1021.06 481.961 1013.94 488.768 1010.89 493.917Z" fill="url('#paint43_linear_18_397')"/><path d="M1019.18 505.512C1019.02 508.026 1016.79 509.429 1015.7 509.816C1015.47 509.065 1014.58 507.617 1012.83 507.835C1010.64 508.108 1010.1 512.48 1010.17 514.325C1010.23 516.169 1011.12 518.219 1012.22 520.063C1013.09 521.539 1014.9 521.27 1015.7 520.951C1016.2 522.021 1017.45 524.79 1018.43 527.304C1019.66 530.447 1027.31 532.701 1029.16 532.838C1031 532.974 1033.12 532.633 1036.94 531.062C1040.77 529.49 1043.5 523.137 1044.66 512.48C1045.59 503.955 1043.5 500.093 1042.34 499.228C1040.91 499.342 1037.22 499.569 1033.94 499.569H1019.93C1019.75 500.503 1019.35 502.999 1019.18 505.512Z" fill="url('#paint44_linear_18_397')"/></g><rect x="1034" y="565" width="91" height="82" rx="10" fill="url('#paint45_linear_18_397')" stroke="#4F6E03" stroke-width="3"/><rect x="1050" y="591" width="60" height="10" rx="3" fill="url('#paint46_linear_18_397')"/><rect x="1050" y="612" width="40" height="10" rx="3" fill="url('#paint47_linear_18_397')"/><defs><linearGradient id="paint0_linear_18_397" x1="306.25" y1="129.5" x2="306.25" y2="305" gradientUnits="userSpaceOnUse"><stop stop-color="#1892F7"/><stop offset="1" stop-color="#1F6FFE"/></linearGradient><linearGradient id="paint1_linear_18_397" x1="784.75" y1="129.5" x2="784.75" y2="305" gradientUnits="userSpaceOnUse"><stop stop-color="#3AAA4A"/><stop offset="1" stop-color="#3B7DA7"/></linearGradient><linearGradient id="paint2_linear_18_397" x1="306" y1="595" x2="306" y2="372" gradientUnits="userSpaceOnUse"><stop stop-color="#821CFA"/><stop offset="1" stop-color="#921FFF"/></linearGradient><linearGradient id="paint3_linear_18_397" x1="785" y1="595" x2="785" y2="372" gradientUnits="userSpaceOnUse"><stop stop-color="#7BA72B"/><stop offset="1" stop-color="#75CE01"/></linearGradient><radialGradient id="paint4_radial_18_397" cx="0" cy="0" r="1" gradientUnits="userSpaceOnUse" gradientTransform="translate(545 337) rotate(90) scale(198)"><stop stop-color="#4323C9"/><stop offset="1" stop-color="#0C0730"/></radialGradient><linearGradient id="paint5_linear_18_397" x1="545" y1="194" x2="545" y2="480" gradientUnits="userSpaceOnUse"><stop stop-color="#4B16EB"/><stop offset="1" stop-color="#7B26FF"/></linearGradient><linearGradient id="paint6_linear_18_397" x1="105" y1="53" x2="105" y2="210" gradientUnits="userSpaceOnUse"><stop stop-color="#0B122D"/><stop offset="1" stop-color="#010715"/></linearGradient><linearGradient id="paint7_linear_18_397" x1="105" y1="53" x2="105" y2="210" gradientUnits="userSpaceOnUse"><stop stop-color="#172540"/><stop offset="1" stop-color="#071334"/></linearGradient><linearGradient id="paint8_linear_18_397" x1="74.5" y1="86.125" x2="74.5" y2="176.875" gradientUnits="userSpaceOnUse"><stop stop-color="#388BFF"/><stop offset="1" stop-color="#2E5AFF"/></linearGradient><linearGradient id="paint9_linear_18_397" x1="158" y1="134" x2="158" y2="179" gradientUnits="userSpaceOnUse"><stop stop-color="#162257"/><stop offset="1" stop-color="#0F1846"/></linearGradient><linearGradient id="paint10_linear_18_397" x1="182" y1="105" x2="182" y2="179" gradientUnits="userSpaceOnUse"><stop stop-color="#162257"/><stop offset="1" stop-color="#0F1846"/></linearGradient><linearGradient id="paint11_linear_18_397" x1="148" y1="0" x2="148" y2="86" gradientUnits="userSpaceOnUse"><stop stop-color="#409CFE"/><stop offset="1" stop-color="#3742FB"/></linearGradient><linearGradient id="paint12_linear_18_397" x1="149.541" y1="78.7972" x2="149.541" y2="63.4432" gradientUnits="userSpaceOnUse"><stop stop-color="#5F72A8"/><stop offset="1" stop-color="#3F4C74"/></linearGradient><linearGradient id="paint13_linear_18_397" x1="170.286" y1="33.0186" x2="130.821" y2="33.0186" gradientUnits="userSpaceOnUse"><stop stop-color="#1D2244"/><stop offset="1" stop-color="#1A1F3E"/></linearGradient><linearGradient id="paint14_linear_18_397" x1="165.896" y1="50.5135" x2="131.161" y2="50.5135" gradientUnits="userSpaceOnUse"><stop stop-color="#7082B9"/><stop offset="1" stop-color="#495989"/></linearGradient><linearGradient id="paint15_linear_18_397" x1="106" y1="517" x2="106" y2="674" gradientUnits="userSpaceOnUse"><stop stop-color="#0B122D"/><stop offset="1" stop-color="#010715"/></linearGradient><linearGradient id="paint16_linear_18_397" x1="106" y1="517" x2="106" y2="674" gradientUnits="userSpaceOnUse"><stop stop-color="#281E4C"/><stop offset="1" stop-color="#251B4E"/></linearGradient><linearGradient id="paint17_linear_18_397" x1="159" y1="598" x2="159" y2="643" gradientUnits="userSpaceOnUse"><stop stop-color="#162257"/><stop offset="1" stop-color="#0F1846"/></linearGradient><linearGradient id="paint18_linear_18_397" x1="183" y1="569" x2="183" y2="643" gradientUnits="userSpaceOnUse"><stop stop-color="#162257"/><stop offset="1" stop-color="#0F1846"/></linearGradient><linearGradient id="paint19_linear_18_397" x1="75.5" y1="550.125" x2="75.5" y2="635.833" gradientUnits="userSpaceOnUse"><stop stop-color="#722BFB"/><stop offset="1" stop-color="#521FD4"/></linearGradient><linearGradient id="paint20_linear_18_397" x1="149" y1="464" x2="149" y2="550" gradientUnits="userSpaceOnUse"><stop stop-color="#744FFF"/><stop offset="1" stop-color="#5B2FE9"/></linearGradient><linearGradient id="paint21_linear_18_397" x1="175.258" y1="516" x2="125.485" y2="516" gradientUnits="userSpaceOnUse"><stop stop-color="#272E40"/><stop offset="1" stop-color="#232939"/></linearGradient><linearGradient id="paint22_linear_18_397" x1="148.811" y1="532.584" x2="149.188" y2="550" gradientUnits="userSpaceOnUse"><stop stop-color="#1B113B"/><stop offset="1" stop-color="#211843"/></linearGradient><linearGradient id="paint23_linear_18_397" x1="150.379" y1="537.483" x2="150.379" y2="526.222" gradientUnits="userSpaceOnUse"><stop stop-color="#697788"/><stop offset="1" stop-color="#454E5E"/></linearGradient><linearGradient id="paint24_linear_18_397" x1="166.997" y1="511.534" x2="137.822" y2="511.534" gradientUnits="userSpaceOnUse"><stop stop-color="#768396"/><stop offset="1" stop-color="#566575"/></linearGradient><linearGradient id="paint25_linear_18_397" x1="186.5" y1="565" x2="186.5" y2="647" gradientUnits="userSpaceOnUse"><stop stop-color="#171535"/><stop offset="1" stop-color="#090718"/></linearGradient><linearGradient id="paint26_linear_18_397" x1="186.5" y1="565" x2="186.5" y2="647" gradientUnits="userSpaceOnUse"><stop stop-color="#6D29F5"/><stop offset="1" stop-color="#521FD4"/></linearGradient><linearGradient id="paint27_linear_18_397" x1="187" y1="591" x2="187" y2="601" gradientUnits="userSpaceOnUse"><stop stop-color="#4842C6"/><stop offset="1" stop-color="#3B369C"/></linearGradient><linearGradient id="paint28_linear_18_397" x1="177" y1="612" x2="177" y2="622" gradientUnits="userSpaceOnUse"><stop stop-color="#272673"/><stop offset="1" stop-color="#282573"/></linearGradient><linearGradient id="paint29_linear_18_397" x1="984" y1="53" x2="984" y2="210" gradientUnits="userSpaceOnUse"><stop stop-color="#0E2115"/><stop offset="1" stop-color="#041006"/></linearGradient><linearGradient id="paint30_linear_18_397" x1="984" y1="53" x2="984" y2="210" gradientUnits="userSpaceOnUse"><stop stop-color="#31803E"/><stop offset="1" stop-color="#216026"/></linearGradient><linearGradient id="paint31_linear_18_397" x1="1037" y1="134" x2="1037" y2="179" gradientUnits="userSpaceOnUse"><stop stop-color="#194527"/><stop offset="1" stop-color="#0A3911"/></linearGradient><linearGradient id="paint32_linear_18_397" x1="1061" y1="105" x2="1061" y2="179" gradientUnits="userSpaceOnUse"><stop stop-color="#194527"/><stop offset="1" stop-color="#0A3911"/></linearGradient><linearGradient id="paint33_linear_18_397" x1="951.5" y1="95.1666" x2="951.5" y2="170.792" gradientUnits="userSpaceOnUse"><stop stop-color="#60E662"/><stop offset="1" stop-color="#5CD148"/></linearGradient><linearGradient id="paint34_linear_18_397" x1="1027" y1="0" x2="1027" y2="86" gradientUnits="userSpaceOnUse"><stop stop-color="#3AAA4B"/><stop offset="1" stop-color="#073412"/></linearGradient><linearGradient id="paint35_linear_18_397" x1="1028.54" y1="78.7972" x2="1028.54" y2="63.4432" gradientUnits="userSpaceOnUse"><stop stop-color="#5F72A8"/><stop offset="1" stop-color="#3F4C74"/></linearGradient><linearGradient id="paint36_linear_18_397" x1="1049.29" y1="33.0186" x2="1009.82" y2="33.0186" gradientUnits="userSpaceOnUse"><stop stop-color="#1D2244"/><stop offset="1" stop-color="#1A1F3E"/></linearGradient><linearGradient id="paint37_linear_18_397" x1="1044.9" y1="50.5135" x2="1010.16" y2="50.5135" gradientUnits="userSpaceOnUse"><stop stop-color="#7082B9"/><stop offset="1" stop-color="#495989"/></linearGradient><linearGradient id="paint38_linear_18_397" x1="984" y1="517" x2="984" y2="674" gradientUnits="userSpaceOnUse"><stop stop-color="#192B02"/><stop offset="1" stop-color="#0B1401"/></linearGradient><linearGradient id="paint39_linear_18_397" x1="984" y1="517" x2="984" y2="674" gradientUnits="userSpaceOnUse"><stop stop-color="#456D04"/><stop offset="1" stop-color="#375304"/></linearGradient><linearGradient id="paint40_linear_18_397" x1="953.5" y1="559.171" x2="953.5" y2="630.791" gradientUnits="userSpaceOnUse"><stop stop-color="#BAF81D"/><stop offset="1" stop-color="#A2E50C"/></linearGradient><linearGradient id="paint41_linear_18_397" x1="1027" y1="464" x2="1027" y2="550" gradientUnits="userSpaceOnUse"><stop stop-color="#76CD03"/><stop offset="1" stop-color="#284702"/></linearGradient><linearGradient id="paint42_linear_18_397" x1="1028.54" y1="542.797" x2="1028.54" y2="527.443" gradientUnits="userSpaceOnUse"><stop stop-color="#5F72A8"/><stop offset="1" stop-color="#3F4C74"/></linearGradient><linearGradient id="paint43_linear_18_397" x1="1049.29" y1="497.019" x2="1009.82" y2="497.019" gradientUnits="userSpaceOnUse"><stop stop-color="#1D2244"/><stop offset="1" stop-color="#1A1F3E"/></linearGradient><linearGradient id="paint44_linear_18_397" x1="1044.9" y1="514.513" x2="1010.16" y2="514.513" gradientUnits="userSpaceOnUse"><stop stop-color="#7082B9"/><stop offset="1" stop-color="#495989"/></linearGradient><linearGradient id="paint45_linear_18_397" x1="1079.5" y1="565" x2="1079.5" y2="647" gradientUnits="userSpaceOnUse"><stop stop-color="#142304"/><stop offset="1" stop-color="#0A1100"/></linearGradient><linearGradient id="paint46_linear_18_397" x1="1080" y1="591" x2="1080" y2="601" gradientUnits="userSpaceOnUse"><stop stop-color="#2C4808"/><stop offset="1" stop-color="#284208"/></linearGradient><linearGradient id="paint47_linear_18_397" x1="1070" y1="612" x2="1070" y2="622" gradientUnits="userSpaceOnUse"><stop stop-color="#243E04"/><stop offset="1" stop-color="#233A07"/></linearGradient><clipPath id="clip0_18_397"><rect x="105" width="86" height="86" rx="43" fill="white"/></clipPath><clipPath id="clip1_18_397"><rect x="984" width="86" height="86" rx="43" fill="white"/></clipPath><clipPath id="clip2_18_397"><rect x="984" y="464" width="86" height="86" rx="43" fill="white"/></clipPath></defs></svg>