<?xml version="1.0" encoding="utf-8" ?>
<!DOCTYPE svg PUBLIC "-//W3C//DTD SVG 1.1//EN" "http://www.w3.org/Graphics/SVG/1.1/DTD/svg11.dtd">
<svg xmlns="http://www.w3.org/2000/svg" width="858" height="502" viewBox="0 0 858 502" fill="none"><rect x="286" y="1" width="284" height="284" rx="11" fill="url('#paint0_linear_7_218')"/><rect x="286" y="1" width="284" height="284" rx="11" stroke="url('#paint1_linear_7_218')" stroke-width="2"/><path d="M338.546 84.0927H332.312L332.353 80.873H338.546C340.679 80.873 342.456 80.4286 343.878 79.54C345.3 78.6376 346.366 77.3798 347.077 75.7665C347.802 74.1396 348.164 72.2392 348.164 70.0653V68.2402C348.164 66.5312 347.959 65.0136 347.549 63.6874C347.139 62.3476 346.537 61.2196 345.744 60.3036C344.951 59.3739 343.98 58.6698 342.832 58.1913C341.697 57.7128 340.392 57.4735 338.915 57.4735H332.188V54.2333H338.915C340.87 54.2333 342.654 54.5614 344.268 55.2177C345.881 55.8603 347.269 56.7968 348.431 58.0273C349.606 59.2441 350.509 60.7206 351.138 62.4569C351.767 64.1796 352.081 66.121 352.081 68.2812V70.0653C352.081 72.2255 351.767 74.1737 351.138 75.9101C350.509 77.6327 349.6 79.1025 348.41 80.3193C347.234 81.536 345.812 82.4726 344.145 83.1288C342.49 83.7714 340.624 84.0927 338.546 84.0927ZM334.424 54.2333V84.0927H330.466V54.2333H334.424ZM370.538 80.2987V68.8759C370.538 68.0009 370.36 67.2421 370.005 66.5995C369.663 65.9433 369.144 65.4374 368.446 65.0819C367.749 64.7265 366.888 64.5487 365.862 64.5487C364.905 64.5487 364.064 64.7128 363.34 65.0409C362.629 65.3691 362.068 65.7997 361.658 66.3329C361.262 66.8661 361.063 67.4403 361.063 68.0556H357.27C357.27 67.2626 357.475 66.4765 357.885 65.6972C358.295 64.9179 358.883 64.2138 359.648 63.5849C360.428 62.9423 361.357 62.4364 362.438 62.0673C363.531 61.6845 364.748 61.4931 366.088 61.4931C367.701 61.4931 369.123 61.7665 370.354 62.3134C371.598 62.8603 372.568 63.6874 373.266 64.7948C373.977 65.8886 374.332 67.2626 374.332 68.9169V79.2528C374.332 79.9911 374.394 80.7773 374.517 81.6112C374.653 82.4452 374.852 83.163 375.111 83.7646V84.0927H371.153C370.962 83.6552 370.812 83.0741 370.702 82.3495C370.593 81.6112 370.538 80.9277 370.538 80.2987ZM371.194 70.6396L371.235 73.3056H367.4C366.32 73.3056 365.356 73.3944 364.509 73.5722C363.661 73.7362 362.95 73.9892 362.376 74.331C361.802 74.6728 361.364 75.1034 361.063 75.623C360.763 76.1288 360.612 76.7235 360.612 77.4071C360.612 78.1044 360.77 78.7402 361.084 79.3144C361.398 79.8886 361.87 80.3466 362.499 80.6884C363.142 81.0165 363.928 81.1806 364.857 81.1806C366.02 81.1806 367.045 80.9345 367.934 80.4423C368.822 79.9501 369.526 79.3485 370.046 78.6376C370.579 77.9267 370.866 77.2362 370.907 76.5663L372.527 78.3915C372.432 78.9657 372.172 79.6015 371.748 80.2987C371.324 80.996 370.757 81.6659 370.046 82.3085C369.349 82.9374 368.515 83.4638 367.544 83.8876C366.587 84.2978 365.507 84.5028 364.304 84.5028C362.8 84.5028 361.48 84.2089 360.346 83.621C359.225 83.0331 358.35 82.247 357.721 81.2626C357.105 80.2646 356.798 79.1503 356.798 77.9198C356.798 76.7304 357.03 75.6845 357.495 74.7821C357.96 73.8661 358.63 73.1073 359.505 72.5058C360.38 71.8905 361.433 71.4257 362.663 71.1112C363.894 70.7968 365.268 70.6396 366.785 70.6396H371.194ZM389.59 61.9032V64.8153H377.593V61.9032H389.59ZM381.653 56.5097H385.447V78.5966C385.447 79.3485 385.563 79.9159 385.796 80.2987C386.028 80.6816 386.329 80.9345 386.698 81.0575C387.067 81.1806 387.464 81.2421 387.888 81.2421C388.202 81.2421 388.53 81.2148 388.872 81.1601C389.228 81.0917 389.494 81.037 389.672 80.996L389.692 84.0927C389.392 84.1884 388.995 84.2773 388.503 84.3593C388.024 84.455 387.443 84.5028 386.76 84.5028C385.83 84.5028 384.976 84.3183 384.196 83.9491C383.417 83.58 382.795 82.9648 382.33 82.1034C381.879 81.2284 381.653 80.0527 381.653 78.5761V56.5097ZM407.124 80.2987V68.8759C407.124 68.0009 406.946 67.2421 406.591 66.5995C406.249 65.9433 405.729 65.4374 405.032 65.0819C404.335 64.7265 403.474 64.5487 402.448 64.5487C401.491 64.5487 400.65 64.7128 399.926 65.0409C399.215 65.3691 398.654 65.7997 398.244 66.3329C397.848 66.8661 397.649 67.4403 397.649 68.0556H393.855C393.855 67.2626 394.061 66.4765 394.471 65.6972C394.881 64.9179 395.469 64.2138 396.234 63.5849C397.014 62.9423 397.943 62.4364 399.023 62.0673C400.117 61.6845 401.334 61.4931 402.674 61.4931C404.287 61.4931 405.709 61.7665 406.939 62.3134C408.184 62.8603 409.154 63.6874 409.852 64.7948C410.562 65.8886 410.918 67.2626 410.918 68.9169V79.2528C410.918 79.9911 410.979 80.7773 411.103 81.6112C411.239 82.4452 411.438 83.163 411.697 83.7646V84.0927H407.739C407.548 83.6552 407.397 83.0741 407.288 82.3495C407.179 81.6112 407.124 80.9277 407.124 80.2987ZM407.78 70.6396L407.821 73.3056H403.986C402.906 73.3056 401.942 73.3944 401.095 73.5722C400.247 73.7362 399.536 73.9892 398.962 74.331C398.388 74.6728 397.95 75.1034 397.649 75.623C397.349 76.1288 397.198 76.7235 397.198 77.4071C397.198 78.1044 397.355 78.7402 397.67 79.3144C397.984 79.8886 398.456 80.3466 399.085 80.6884C399.728 81.0165 400.514 81.1806 401.443 81.1806C402.605 81.1806 403.631 80.9345 404.52 80.4423C405.408 79.9501 406.112 79.3485 406.632 78.6376C407.165 77.9267 407.452 77.2362 407.493 76.5663L409.113 78.3915C409.018 78.9657 408.758 79.6015 408.334 80.2987C407.91 80.996 407.343 81.6659 406.632 82.3085C405.935 82.9374 405.101 83.4638 404.13 83.8876C403.173 84.2978 402.093 84.5028 400.89 84.5028C399.386 84.5028 398.066 84.2089 396.932 83.621C395.811 83.0331 394.936 82.247 394.307 81.2626C393.691 80.2646 393.384 79.1503 393.384 77.9198C393.384 76.7304 393.616 75.6845 394.081 74.7821C394.546 73.8661 395.216 73.1073 396.091 72.5058C396.966 71.8905 398.019 71.4257 399.249 71.1112C400.479 70.7968 401.854 70.6396 403.371 70.6396H407.78ZM438.091 54.2333V84.0927H434.194V54.2333H438.091ZM447.688 54.2333V57.4735H424.617V54.2333H447.688ZM458.701 84.5028C457.156 84.5028 455.755 84.2431 454.497 83.7235C453.253 83.1903 452.18 82.4452 451.277 81.4882C450.389 80.5312 449.705 79.3964 449.227 78.0839C448.748 76.7714 448.509 75.3359 448.509 73.7773V72.9159C448.509 71.1112 448.775 69.5048 449.309 68.0966C449.842 66.6747 450.566 65.4716 451.482 64.4872C452.398 63.5028 453.438 62.7577 454.6 62.2519C455.762 61.746 456.965 61.4931 458.209 61.4931C459.795 61.4931 461.162 61.7665 462.311 62.3134C463.473 62.8603 464.423 63.6259 465.161 64.6103C465.899 65.581 466.446 66.7294 466.802 68.0556C467.157 69.3681 467.335 70.8036 467.335 72.3622V74.0644H450.765V70.9677H463.541V70.6806C463.486 69.6962 463.281 68.7392 462.926 67.8095C462.584 66.8798 462.037 66.1142 461.285 65.5126C460.533 64.911 459.508 64.6103 458.209 64.6103C457.348 64.6103 456.555 64.7948 455.83 65.164C455.105 65.5194 454.483 66.0527 453.964 66.7636C453.444 67.4745 453.041 68.3427 452.754 69.3681C452.467 70.3935 452.323 71.5761 452.323 72.9159V73.7773C452.323 74.83 452.467 75.8212 452.754 76.7509C453.055 77.6669 453.485 78.4735 454.046 79.1708C454.62 79.8681 455.311 80.415 456.117 80.8114C456.938 81.2079 457.867 81.4062 458.906 81.4062C460.246 81.4062 461.381 81.1327 462.311 80.5859C463.24 80.039 464.054 79.3075 464.751 78.3915L467.048 80.2167C466.569 80.9413 465.961 81.6318 465.223 82.288C464.484 82.9443 463.575 83.4775 462.495 83.8876C461.429 84.2978 460.164 84.5028 458.701 84.5028ZM484.849 80.2987V68.8759C484.849 68.0009 484.671 67.2421 484.315 66.5995C483.974 65.9433 483.454 65.4374 482.757 65.0819C482.06 64.7265 481.198 64.5487 480.173 64.5487C479.216 64.5487 478.375 64.7128 477.65 65.0409C476.939 65.3691 476.379 65.7997 475.969 66.3329C475.572 66.8661 475.374 67.4403 475.374 68.0556H471.58C471.58 67.2626 471.785 66.4765 472.195 65.6972C472.605 64.9179 473.193 64.2138 473.959 63.5849C474.738 62.9423 475.668 62.4364 476.748 62.0673C477.842 61.6845 479.059 61.4931 480.398 61.4931C482.012 61.4931 483.434 61.7665 484.664 62.3134C485.908 62.8603 486.879 63.6874 487.576 64.7948C488.287 65.8886 488.643 67.2626 488.643 68.9169V79.2528C488.643 79.9911 488.704 80.7773 488.827 81.6112C488.964 82.4452 489.162 83.163 489.422 83.7646V84.0927H485.464C485.272 83.6552 485.122 83.0741 485.013 82.3495C484.903 81.6112 484.849 80.9277 484.849 80.2987ZM485.505 70.6396L485.546 73.3056H481.711C480.631 73.3056 479.667 73.3944 478.819 73.5722C477.972 73.7362 477.261 73.9892 476.687 74.331C476.112 74.6728 475.675 75.1034 475.374 75.623C475.073 76.1288 474.923 76.7235 474.923 77.4071C474.923 78.1044 475.08 78.7402 475.395 79.3144C475.709 79.8886 476.181 80.3466 476.81 80.6884C477.452 81.0165 478.238 81.1806 479.168 81.1806C480.33 81.1806 481.355 80.9345 482.244 80.4423C483.133 79.9501 483.837 79.3485 484.356 78.6376C484.89 77.9267 485.177 77.2362 485.218 76.5663L486.838 78.3915C486.742 78.9657 486.482 79.6015 486.059 80.2987C485.635 80.996 485.067 81.6659 484.356 82.3085C483.659 82.9374 482.825 83.4638 481.854 83.8876C480.897 84.2978 479.817 84.5028 478.614 84.5028C477.11 84.5028 475.791 84.2089 474.656 83.621C473.535 83.0331 472.66 82.247 472.031 81.2626C471.416 80.2646 471.108 79.1503 471.108 77.9198C471.108 76.7304 471.341 75.6845 471.806 74.7821C472.271 73.8661 472.94 73.1073 473.815 72.5058C474.69 71.8905 475.743 71.4257 476.974 71.1112C478.204 70.7968 479.578 70.6396 481.096 70.6396H485.505ZM498.384 66.3124V84.0927H494.569V61.9032H498.179L498.384 66.3124ZM497.604 72.1571L495.841 72.0956C495.854 70.578 496.053 69.1767 496.436 67.8915C496.818 66.5927 497.386 65.4648 498.138 64.5077C498.89 63.5507 499.826 62.8124 500.947 62.2929C502.068 61.7597 503.367 61.4931 504.844 61.4931C505.883 61.4931 506.84 61.6435 507.715 61.9443C508.59 62.2314 509.349 62.6894 509.991 63.3183C510.634 63.9472 511.133 64.7538 511.488 65.7382C511.844 66.7226 512.021 67.912 512.021 69.3066V84.0927H508.228V69.4911C508.228 68.329 508.029 67.3993 507.633 66.7021C507.25 66.0048 506.703 65.4989 505.992 65.1845C505.281 64.8564 504.447 64.6923 503.49 64.6923C502.369 64.6923 501.433 64.8905 500.681 65.287C499.929 65.6835 499.327 66.2304 498.876 66.9277C498.425 67.6249 498.097 68.4247 497.892 69.3271C497.7 70.2157 497.604 71.1591 497.604 72.1571ZM511.98 70.0653L509.438 70.8446C509.451 69.6278 509.649 68.4589 510.032 67.3378C510.429 66.2167 510.996 65.2187 511.734 64.3437C512.486 63.4687 513.409 62.7782 514.503 62.2724C515.597 61.7528 516.848 61.4931 518.256 61.4931C519.445 61.4931 520.498 61.6503 521.414 61.9648C522.344 62.2792 523.123 62.7646 523.752 63.4208C524.395 64.0634 524.88 64.8905 525.208 65.9023C525.536 66.914 525.7 68.1171 525.7 69.5116V84.0927H521.886V69.4706C521.886 68.2265 521.688 67.2626 521.291 66.579C520.908 65.8818 520.361 65.3964 519.65 65.123C518.953 64.8359 518.119 64.6923 517.148 64.6923C516.314 64.6923 515.576 64.8359 514.934 65.123C514.291 65.4101 513.751 65.8066 513.313 66.3124C512.876 66.8046 512.541 67.372 512.309 68.0146C512.09 68.6571 511.98 69.3407 511.98 70.0653Z" fill="white"/><path d="M364.77 133.954C369.135 133.954 373.401 135.248 377.03 137.673C380.659 140.098 383.487 143.544 385.158 147.576C386.828 151.609 387.265 156.046 386.413 160.326C385.562 164.607 383.46 168.539 380.374 171.625C377.288 174.712 373.356 176.813 369.075 177.665C364.795 178.516 360.358 178.079 356.325 176.409C352.293 174.739 348.846 171.91 346.422 168.281C343.997 164.652 342.703 160.386 342.703 156.021L342.725 155.064C342.971 149.382 345.402 144.016 349.509 140.083C353.616 136.15 359.083 133.954 364.77 133.954Z" fill="#253442"/><path d="M373.597 186.916C379.45 186.916 385.063 189.241 389.201 193.379C393.34 197.518 395.664 203.131 395.664 208.983V213.397C395.664 215.738 394.735 217.983 393.079 219.638C391.424 221.294 389.179 222.224 386.838 222.224H342.703C340.362 222.224 338.116 221.294 336.461 219.638C334.806 217.983 333.876 215.738 333.876 213.397V208.983C333.876 203.131 336.201 197.518 340.339 193.379C344.477 189.241 350.09 186.916 355.943 186.916H373.597Z" fill="#253442"/><path d="M364.77 133.954C369.135 133.954 373.401 135.248 377.03 137.673C380.659 140.098 383.487 143.544 385.158 147.576C386.828 151.609 387.265 156.046 386.413 160.326C385.562 164.607 383.46 168.539 380.374 171.625C377.288 174.712 373.356 176.813 369.075 177.665C364.795 178.516 360.358 178.079 356.325 176.409C352.293 174.739 348.846 171.91 346.422 168.281C343.997 164.652 342.703 160.386 342.703 156.021L342.725 155.064C342.971 149.382 345.402 144.016 349.509 140.083C353.616 136.15 359.083 133.954 364.77 133.954Z" stroke="black"/><path d="M373.597 186.916C379.45 186.916 385.063 189.241 389.201 193.379C393.34 197.518 395.664 203.131 395.664 208.983V213.397C395.664 215.738 394.735 217.983 393.079 219.638C391.424 221.294 389.179 222.224 386.838 222.224H342.703C340.362 222.224 338.116 221.294 336.461 219.638C334.806 217.983 333.876 215.738 333.876 213.397V208.983C333.876 203.131 336.201 197.518 340.339 193.379C344.477 189.241 350.09 186.916 355.943 186.916H373.597Z" stroke="black"/><path d="M491.23 133.954C495.594 133.954 499.861 135.248 503.49 137.673C507.119 140.098 509.947 143.544 511.618 147.576C513.288 151.609 513.725 156.046 512.873 160.326C512.022 164.607 509.92 168.539 506.834 171.625C503.748 174.712 499.816 176.813 495.535 177.665C491.254 178.516 486.817 178.079 482.785 176.409C478.753 174.739 475.306 171.91 472.881 168.281C470.457 164.652 469.162 160.386 469.162 156.021L469.184 155.064C469.431 149.382 471.862 144.016 475.969 140.083C480.076 136.15 485.543 133.954 491.23 133.954Z" fill="#253442"/><path d="M500.057 186.916C505.91 186.916 511.522 189.241 515.661 193.379C519.799 197.518 522.124 203.131 522.124 208.983V213.397C522.124 215.738 521.194 217.983 519.539 219.638C517.884 221.294 515.638 222.224 513.297 222.224H469.162C466.821 222.224 464.576 221.294 462.921 219.638C461.265 217.983 460.335 215.738 460.335 213.397V208.983C460.335 203.131 462.66 197.518 466.799 193.379C470.937 189.241 476.55 186.916 482.403 186.916H500.057Z" fill="#253442"/><path d="M491.23 133.954C495.594 133.954 499.861 135.248 503.49 137.673C507.119 140.098 509.947 143.544 511.618 147.576C513.288 151.609 513.725 156.046 512.873 160.326C512.022 164.607 509.92 168.539 506.834 171.625C503.748 174.712 499.816 176.813 495.535 177.665C491.254 178.516 486.817 178.079 482.785 176.409C478.753 174.739 475.306 171.91 472.881 168.281C470.457 164.652 469.162 160.386 469.162 156.021L469.184 155.064C469.431 149.382 471.862 144.016 475.969 140.083C480.076 136.15 485.543 133.954 491.23 133.954Z" stroke="black"/><path d="M500.057 186.916C505.91 186.916 511.522 189.241 515.661 193.379C519.799 197.518 522.124 203.131 522.124 208.983V213.397C522.124 215.738 521.194 217.983 519.539 219.638C517.884 221.294 515.638 222.224 513.297 222.224H469.162C466.821 222.224 464.576 221.294 462.921 219.638C461.265 217.983 460.335 215.738 460.335 213.397V208.983C460.335 203.131 462.66 197.518 466.799 193.379C470.937 189.241 476.55 186.916 482.403 186.916H500.057Z" stroke="black"/><path d="M428 124.093C433.776 124.093 439.422 125.805 444.225 129.014C449.027 132.223 452.77 136.784 454.981 142.121C457.191 147.457 457.769 153.329 456.643 158.994C455.516 164.659 452.734 169.862 448.65 173.946C444.566 178.031 439.362 180.812 433.697 181.939C428.032 183.066 422.161 182.487 416.824 180.277C411.488 178.067 406.927 174.324 403.718 169.521C400.509 164.719 398.796 159.072 398.796 153.296L398.826 152.029C399.152 144.51 402.369 137.408 407.804 132.203C413.24 126.999 420.474 124.093 428 124.093Z" fill="#365179"/><path d="M439.681 194.181C447.427 194.181 454.855 197.258 460.332 202.735C465.808 208.212 468.885 215.64 468.885 223.385V229.226C468.885 232.324 467.654 235.295 465.464 237.486C463.273 239.677 460.302 240.907 457.204 240.907H398.796C395.698 240.907 392.727 239.677 390.536 237.486C388.346 235.295 387.115 232.324 387.115 229.226V223.385C387.115 215.64 390.192 208.212 395.668 202.735C401.145 197.258 408.573 194.181 416.319 194.181H439.681Z" fill="#365179"/><path d="M428 124.093C433.776 124.093 439.422 125.805 444.225 129.014C449.027 132.223 452.77 136.784 454.981 142.121C457.191 147.457 457.769 153.329 456.643 158.994C455.516 164.659 452.734 169.862 448.65 173.946C444.566 178.031 439.362 180.812 433.697 181.939C428.032 183.066 422.161 182.487 416.824 180.277C411.488 178.067 406.927 174.324 403.718 169.521C400.509 164.719 398.796 159.072 398.796 153.296L398.826 152.029C399.152 144.51 402.369 137.408 407.804 132.203C413.24 126.999 420.474 124.093 428 124.093Z" stroke="black"/><path d="M439.681 194.181C447.427 194.181 454.855 197.258 460.332 202.735C465.808 208.212 468.885 215.64 468.885 223.385V229.226C468.885 232.324 467.654 235.295 465.464 237.486C463.273 239.677 460.302 240.907 457.204 240.907H398.796C395.698 240.907 392.727 239.677 390.536 237.486C388.346 235.295 387.115 232.324 387.115 229.226V223.385C387.115 215.64 390.192 208.212 395.668 202.735C401.145 197.258 408.573 194.181 416.319 194.181H439.681Z" stroke="black"/><rect x="1" y="1" width="114" height="114" rx="11" fill="url('#paint2_linear_7_218')"/><rect x="1" y="1" width="114" height="114" rx="11" stroke="url('#paint3_linear_7_218')" stroke-width="2"/><path d="M37.6904 97.7085C43.5437 96.2452 51.8968 94.1112 55.3417 93.2271C59.8536 93.5015 69.3164 94.0502 71.0724 94.0502C73.2673 94.0502 86.5287 99.2633 95.8573 103.013C103.32 106.013 104.942 112.921 104.82 116H11.442C11.0152 115.39 10.7836 112.982 13.2712 108.226C16.3808 102.281 30.3738 99.5376 37.6904 97.7085Z" fill="#263A87"/><path d="M46.8115 99.5436V83.2037L73.6691 83.6667V99.0907C71.8955 101.021 66.7182 105.004 60.1984 105.489C53.6786 105.974 48.5572 101.728 46.8115 99.5436Z" fill="url('#paint4_linear_7_218')"/><path d="M34.5789 34.4588C31.0373 40.4483 34.3619 52.2321 36.4669 57.3753L41.9357 60.2399C53.2203 58.5689 77.287 54.3935 83.2766 51.0602C90.7635 46.8936 91.0891 39.6671 89.8521 34.8494C88.6151 30.0317 79.5657 18.3781 64.4616 17.7271C49.3575 17.076 39.006 26.9718 34.5789 34.4588Z" fill="url('#paint5_linear_7_218')"/><path d="M46.635 51.318C46.3967 54.9731 43.1587 57.0125 41.5696 57.5753C41.2385 56.4828 39.9407 54.3771 37.398 54.695C34.2197 55.0923 33.4251 61.4489 33.5244 64.1307C33.6237 66.8124 34.9149 69.7921 36.5041 72.4738C37.7754 74.6192 40.4108 74.2285 41.5696 73.765C42.2979 75.3211 44.1122 79.347 45.5425 83.0021C47.3303 87.5709 58.4545 90.8486 61.1362 91.0472C63.818 91.2459 66.897 90.7493 72.4591 88.4648C78.0212 86.1804 81.9941 76.9433 83.6826 61.4489C85.0334 49.0534 81.9941 43.4383 80.3056 42.1802C78.2198 42.3458 72.8564 42.6769 68.0889 42.6769H47.7276C47.4627 44.0343 46.8734 47.6629 46.635 51.318Z" fill="url('#paint6_linear_7_218')"/><rect x="1" y="194" width="114" height="114" rx="11" fill="url('#paint7_linear_7_218')"/><rect x="1" y="194" width="114" height="114" rx="11" stroke="url('#paint8_linear_7_218')" stroke-width="2"/><path d="M19.9744 288.674C20.5385 290.072 19.3924 296.304 18.7488 299.245L87.4578 293.432C88.441 290.888 90.5115 285.243 90.9279 283.022C91.4484 280.246 89.7134 279.031 89.7134 276.949C89.7134 274.867 91.4484 274 93.5305 271.831C95.6126 269.662 95.1788 264.717 94.9186 261.247C94.6583 257.777 89.4531 251.097 87.4578 246.759C85.4624 242.421 86.0697 236.435 85.9829 231.577C85.8962 226.719 83.8141 220.472 76.2665 214.747C68.7189 209.021 56.3132 211.797 45.7292 216.048C35.1452 220.299 32.2824 230.97 32.2824 234.527C32.2824 237.372 35.8682 241.322 37.6611 242.942C36.996 242.855 35.2493 242.734 33.5837 242.942C31.5016 243.202 29.7665 245.371 28.3784 247.626C26.9904 249.882 26.2096 253.179 25.5156 257.256C24.8215 261.334 26.0361 263.849 26.2096 270.529C26.3831 277.209 22.3057 281.721 20.3971 284.03C18.4885 286.339 19.2693 286.926 19.9744 288.674Z" fill="url('#paint9_linear_7_218')"/><path d="M40.9061 288.674C44.1906 287.705 46.6719 285.174 47.502 284.03L71.3952 284.568C72.1131 284.793 74.1008 285.47 76.3084 286.386C79.0679 287.53 95.3557 295.001 100.404 299.712C104.442 303.481 104.509 307.474 104.038 309H11.7632V305.635C11.7632 304.019 15.4649 300.048 19.9744 296.683C24.4838 293.318 36.8005 289.885 40.9061 288.674Z" fill="url('#paint10_linear_7_218')"/><path d="M46.5061 290.811V269.084L73.2283 272.081C73.3948 278.075 73.6279 290.911 73.2283 294.308C72.8287 297.704 67.956 298.498 65.5696 298.47C66.0136 298.498 65.22 298.537 58.4937 298.47C51.7673 298.404 47.6993 293.337 46.5061 290.811Z" fill="url('#paint11_linear_7_218')"/><path d="M44.7157 269.046C42.3017 265.023 41.8899 256.354 41.9857 252.522C41.8238 246.97 43.4944 242.392 44.0691 240.309C44.5289 238.642 47.374 237.842 48.739 237.65C50.4872 237.459 55.5499 236.486 61.8147 234.13C69.6457 231.184 70.8671 229.891 71.7292 228.454C72.4189 227.305 73.214 227.448 73.5253 227.664C76.471 230.25 82.5634 236.573 83.368 241.171C84.3739 246.918 83.7273 260.569 80.4224 269.046C77.1176 277.524 69.5739 280.039 63.2516 280.182C56.9293 280.326 47.7332 274.075 44.7157 269.046Z" fill="url('#paint12_linear_7_218')"/><g clip-path="url('#clip0_7_218')"><rect y="386" width="116" height="116" rx="12" fill="url('#paint13_linear_7_218')"/><path d="M34.8651 483.728C37.9227 483.004 42.4087 480.476 44.2695 479.303L67.1838 479.611L78.8019 484.215C80.7829 484.394 86.426 485.597 93.1507 488.984C99.8753 492.37 102.841 497.781 103.484 500.063L102.042 502H12.5389C12.5216 501.775 12.4974 500.899 12.5389 499.197C12.5908 497.068 13.4215 494.784 18.9245 490.579C24.4275 486.374 31.0429 484.634 34.8651 483.728Z" fill="url('#paint14_linear_7_218')"/><path d="M32.5588 434.59C33.8008 437.654 35.0083 442.042 35.4568 443.854L41.5434 445.96C52.0207 443.875 73.6987 439.587 76.5921 439.114C80.2088 438.523 84.0342 432.055 85.0775 425.656C86.1208 419.257 82.0867 417.379 77.7397 415.675C73.3926 413.971 74.1229 409.589 73.5317 407.746C72.9405 405.903 68.0078 402.323 55.8024 402.323C43.597 402.323 38.9443 411.614 33.6198 416.117C28.2953 420.621 27.9554 427.588 28.1254 429.768C28.2953 431.949 29.6831 431.185 30.5327 431.156C31.3824 431.128 31.0062 430.761 32.5588 434.59Z" fill="url('#paint15_linear_7_218')"/><path d="M43.7356 482.008V466.336H69.0998C69.1641 470.306 69.2541 479.211 69.0998 483.069C68.9455 486.927 63.5384 488.405 60.854 488.663C60.6129 488.727 58.8288 488.817 53.6209 488.663C48.413 488.508 44.8608 484.162 43.7356 482.008Z" fill="url('#paint16_linear_7_218')"/><path d="M32.4948 443.54C33.9663 441.798 36.8833 443.105 38.1579 443.976C38.0289 441.653 37.7707 436.57 37.7707 434.828C37.7707 432.65 39.61 430.617 42.2722 428.342C44.9343 426.067 48.2257 426.987 55.5829 426.89C62.9401 426.793 67.0544 423.163 69.3293 422.727C71.1492 422.379 72.4432 423.582 72.8627 424.228C74.0243 426.39 76.5316 431.566 77.2673 434.973C78.187 439.233 77.8482 457.093 75.9605 464.354C74.0728 471.614 62.3593 475.922 58.7775 476.067C55.1957 476.212 50.3554 474.228 45.128 470.065C40.946 466.735 38.7388 461.159 38.1579 458.787C37.3835 458.916 35.5055 459.165 34.1889 459.126C32.5433 459.078 30.4619 453.56 30.3167 451.672C30.1715 449.784 30.6555 445.719 32.4948 443.54Z" fill="url('#paint17_linear_7_218')"/></g><rect x="1" y="387" width="114" height="114" rx="11" stroke="url('#paint18_linear_7_218')" stroke-width="2"/><rect x="743" y="1" width="114" height="114" rx="11" fill="url('#paint19_linear_7_218')"/><rect x="743" y="1" width="114" height="114" rx="11" stroke="url('#paint20_linear_7_218')" stroke-width="2"/><path d="M779.69 97.7085C785.544 96.2452 793.897 94.1112 797.342 93.2271C801.854 93.5015 811.316 94.0502 813.072 94.0502C815.267 94.0502 828.529 99.2633 837.857 103.013C845.32 106.013 846.942 112.921 846.82 116H753.442C753.015 115.39 752.784 112.982 755.271 108.226C758.381 102.281 772.374 99.5376 779.69 97.7085Z" fill="#263A87"/><path d="M788.812 99.5436V83.2037L815.669 83.6667V99.0907C813.895 101.021 808.718 105.004 802.198 105.489C795.679 105.974 790.557 101.728 788.812 99.5436Z" fill="url('#paint21_linear_7_218')"/><path d="M776.579 34.4588C773.037 40.4483 776.362 52.2321 778.467 57.3753L783.936 60.2399C795.22 58.5689 819.287 54.3935 825.277 51.0602C832.764 46.8936 833.089 39.6671 831.852 34.8494C830.615 30.0317 821.566 18.3781 806.462 17.7271C791.358 17.076 781.006 26.9718 776.579 34.4588Z" fill="url('#paint22_linear_7_218')"/><path d="M788.635 51.318C788.397 54.9731 785.159 57.0125 783.57 57.5753C783.239 56.4828 781.941 54.3771 779.398 54.695C776.22 55.0923 775.425 61.4489 775.524 64.1307C775.624 66.8124 776.915 69.7921 778.504 72.4738C779.775 74.6192 782.411 74.2285 783.57 73.765C784.298 75.3211 786.112 79.347 787.543 83.0021C789.33 87.5709 800.455 90.8486 803.136 91.0472C805.818 91.2459 808.897 90.7493 814.459 88.4648C820.021 86.1804 823.994 76.9433 825.683 61.4489C827.033 49.0534 823.994 43.4383 822.306 42.1802C820.22 42.3458 814.856 42.6769 810.089 42.6769H789.728C789.463 44.0343 788.873 47.6629 788.635 51.318Z" fill="url('#paint23_linear_7_218')"/><rect x="743" y="194" width="114" height="114" rx="11" fill="url('#paint24_linear_7_218')"/><rect x="743" y="194" width="114" height="114" rx="11" stroke="url('#paint25_linear_7_218')" stroke-width="2"/><path d="M761.974 288.674C762.538 290.072 761.392 296.304 760.749 299.245L829.458 293.432C830.441 290.888 832.511 285.243 832.928 283.022C833.448 280.246 831.713 279.031 831.713 276.949C831.713 274.867 833.448 274 835.53 271.831C837.613 269.662 837.179 264.717 836.919 261.247C836.658 257.777 831.453 251.097 829.458 246.759C827.462 242.421 828.07 236.435 827.983 231.577C827.896 226.719 825.814 220.472 818.266 214.747C810.719 209.021 798.313 211.797 787.729 216.048C777.145 220.299 774.282 230.97 774.282 234.527C774.282 237.372 777.868 241.322 779.661 242.942C778.996 242.855 777.249 242.734 775.584 242.942C773.502 243.202 771.766 245.371 770.378 247.626C768.99 249.882 768.21 253.179 767.516 257.256C766.821 261.334 768.036 263.849 768.21 270.529C768.383 277.209 764.306 281.721 762.397 284.03C760.488 286.339 761.269 286.926 761.974 288.674Z" fill="url('#paint26_linear_7_218')"/><path d="M782.906 288.674C786.191 287.705 788.672 285.174 789.502 284.03L813.395 284.568C814.113 284.793 816.101 285.47 818.308 286.386C821.068 287.53 837.356 295.001 842.404 299.712C846.442 303.481 846.509 307.474 846.038 309H753.763V305.635C753.763 304.019 757.465 300.048 761.974 296.683C766.484 293.318 778.801 289.885 782.906 288.674Z" fill="url('#paint27_linear_7_218')"/><path d="M788.506 290.811V269.084L815.228 272.081C815.395 278.075 815.628 290.911 815.228 294.308C814.829 297.704 809.956 298.498 807.57 298.47C808.014 298.498 807.22 298.537 800.494 298.47C793.767 298.404 789.699 293.337 788.506 290.811Z" fill="url('#paint28_linear_7_218')"/><path d="M786.716 269.046C784.302 265.023 783.89 256.354 783.986 252.522C783.824 246.97 785.494 242.392 786.069 240.309C786.529 238.642 789.374 237.842 790.739 237.65C792.487 237.459 797.55 236.486 803.815 234.13C811.646 231.184 812.867 229.891 813.729 228.454C814.419 227.305 815.214 227.448 815.525 227.664C818.471 230.25 824.563 236.573 825.368 241.171C826.374 246.918 825.727 260.569 822.422 269.046C819.118 277.524 811.574 280.039 805.252 280.182C798.929 280.326 789.733 274.075 786.716 269.046Z" fill="url('#paint29_linear_7_218')"/><g clip-path="url('#clip1_7_218')"><rect x="742" y="386" width="116" height="116" rx="12" fill="url('#paint30_linear_7_218')"/><path d="M776.865 483.728C779.923 483.004 784.409 480.476 786.27 479.303L809.184 479.611L820.802 484.215C822.783 484.394 828.426 485.597 835.151 488.984C841.875 492.37 844.841 497.781 845.484 500.063L844.042 502H754.539C754.522 501.775 754.497 500.899 754.539 499.197C754.591 497.068 755.422 494.784 760.925 490.579C766.428 486.374 773.043 484.634 776.865 483.728Z" fill="url('#paint31_linear_7_218')"/><path d="M774.559 434.59C775.801 437.654 777.008 442.042 777.457 443.854L783.543 445.96C794.021 443.875 815.699 439.587 818.592 439.114C822.209 438.523 826.034 432.055 827.078 425.656C828.121 419.257 824.087 417.379 819.74 415.675C815.393 413.971 816.123 409.589 815.532 407.746C814.941 405.903 810.008 402.323 797.802 402.323C785.597 402.323 780.944 411.614 775.62 416.117C770.295 420.621 769.955 427.588 770.125 429.768C770.295 431.949 771.683 431.185 772.533 431.156C773.382 431.128 773.006 430.761 774.559 434.59Z" fill="url('#paint32_linear_7_218')"/><path d="M785.736 482.008V466.336H811.1C811.164 470.306 811.254 479.211 811.1 483.069C810.946 486.927 805.538 488.405 802.854 488.663C802.613 488.727 800.829 488.817 795.621 488.663C790.413 488.508 786.861 484.162 785.736 482.008Z" fill="url('#paint33_linear_7_218')"/><path d="M774.495 443.54C775.966 441.798 778.883 443.105 780.158 443.976C780.029 441.653 779.771 436.57 779.771 434.828C779.771 432.65 781.61 430.617 784.272 428.342C786.934 426.067 790.226 426.987 797.583 426.89C804.94 426.793 809.054 423.163 811.329 422.727C813.149 422.379 814.443 423.582 814.863 424.228C816.024 426.39 818.532 431.566 819.267 434.973C820.187 439.233 819.848 457.093 817.961 464.354C816.073 471.614 804.359 475.922 800.778 476.067C797.196 476.212 792.356 474.228 787.128 470.065C782.946 466.735 780.739 461.159 780.158 458.787C779.384 458.916 777.506 459.165 776.189 459.126C774.543 459.078 772.462 453.56 772.317 451.672C772.172 449.784 772.656 445.719 774.495 443.54Z" fill="url('#paint34_linear_7_218')"/></g><rect x="743" y="387" width="114" height="114" rx="11" stroke="url('#paint35_linear_7_218')" stroke-width="2"/><path d="M115 58H151C162.046 58 171 66.9543 171 78V97.5C171 108.546 179.954 117.5 191 117.5H286" stroke="url('#paint36_linear_7_218')" stroke-width="3"/><path d="M742 58H706C694.954 58 686 66.9543 686 78V97.5C686 108.546 677.046 117.5 666 117.5H571" stroke="url('#paint37_linear_7_218')" stroke-width="3" stroke-dasharray="6 6"/><path d="M115 252H151C162.046 252 171 243.046 171 232V186C171 174.954 179.954 166 191 166H286" stroke="url('#paint38_linear_7_218')" stroke-width="3"/><path d="M742 252H706C694.954 252 686 243.046 686 232V186C686 174.954 677.046 166 666 166H571" stroke="url('#paint39_linear_7_218')" stroke-width="3" stroke-dasharray="6 6"/><path d="M115 446H178.5C189.546 446 198.5 437.046 198.5 426V232C198.5 220.954 207.454 212 218.5 212H286" stroke="url('#paint40_linear_7_218')" stroke-width="3"/><path d="M742 446H678.5C667.454 446 658.5 437.046 658.5 426V232C658.5 220.954 649.546 212 638.5 212H571" stroke="url('#paint41_linear_7_218')" stroke-width="3" stroke-dasharray="6 6"/><path d="M232.5 117.5C225.5 120.5 234.5 124 229 124C223.5 124 211 121.09 211 117.5C211 113.91 219.059 111 229 111C232.5 111 232.5 113.91 232.5 117.5Z" fill="url('#paint42_linear_7_218')"/><circle cx="229.5" cy="117.5" r="6.5" fill="#728DE2"/><circle cx="229.5" cy="117.5" r="3.5" fill="white"/><path d="M163.5 445.5C156.5 448.5 165.5 452 160 452C154.5 452 142 449.09 142 445.5C142 441.91 150.059 439 160 439C163.5 439 163.5 441.91 163.5 445.5Z" fill="url('#paint43_linear_7_218')"/><circle cx="160.5" cy="445.5" r="6.5" fill="#44E062"/><circle cx="160.5" cy="445.5" r="3.5" fill="white"/><path d="M180.155 168.937C177.739 176.159 186.339 171.768 182.68 175.874C179.022 179.981 168.534 187.378 165.853 184.99C163.173 182.602 166.361 174.649 172.974 167.227C175.302 164.613 177.475 166.549 180.155 168.937Z" fill="url('#paint44_linear_7_218')"/><circle cx="178.16" cy="171.177" r="6.5" transform="rotate(-48.3021 178.16 171.177)" fill="#509CBB"/><circle cx="178.16" cy="171.177" r="3.5" transform="rotate(-48.3021 178.16 171.177)" fill="white"/><path d="M459.985 376.121C460.843 369.454 459.597 362.686 456.421 356.762C453.245 350.838 448.297 346.055 442.269 343.081C436.241 340.106 429.435 339.09 422.801 340.173C416.167 341.256 410.038 344.386 405.269 349.123C400.501 353.86 397.332 359.969 396.205 366.596C395.079 373.222 396.051 380.035 398.985 386.083C401.92 392.13 406.671 397.109 412.574 400.324C418.477 403.538 425.237 404.829 431.909 404.014M428 354.083V372L435.167 379.167M463.833 407.833L445.917 389.917M445.917 407.833L463.833 389.917" stroke="#C7FF00" stroke-width="6" stroke-linecap="round" stroke-linejoin="round"/><defs><linearGradient id="paint0_linear_7_218" x1="428" y1="0" x2="428" y2="286" gradientUnits="userSpaceOnUse"><stop stop-color="#14222C"/><stop offset="1" stop-color="#0D0F12"/></linearGradient><linearGradient id="paint1_linear_7_218" x1="428" y1="0" x2="428" y2="286" gradientUnits="userSpaceOnUse"><stop stop-color="#166495"/><stop offset="1" stop-color="#1E333F"/></linearGradient><linearGradient id="paint2_linear_7_218" x1="58" y1="0" x2="58" y2="116" gradientUnits="userSpaceOnUse"><stop stop-color="#13152A"/><stop offset="1" stop-color="#0E1322"/></linearGradient><linearGradient id="paint3_linear_7_218" x1="58" y1="0" x2="58" y2="116" gradientUnits="userSpaceOnUse"><stop stop-color="#422DF2"/><stop offset="1" stop-color="#5A56FC"/></linearGradient><linearGradient id="paint4_linear_7_218" x1="60.2403" y1="105.527" x2="60.2403" y2="83.2037" gradientUnits="userSpaceOnUse"><stop stop-color="#5F72A8"/><stop offset="1" stop-color="#3F4C74"/></linearGradient><linearGradient id="paint5_linear_7_218" x1="90.4022" y1="38.9682" x2="33.0232" y2="38.9682" gradientUnits="userSpaceOnUse"><stop stop-color="#1D2244"/><stop offset="1" stop-color="#1A1F3E"/></linearGradient><linearGradient id="paint6_linear_7_218" x1="84.0192" y1="64.4049" x2="33.5164" y2="64.4049" gradientUnits="userSpaceOnUse"><stop stop-color="#7082B9"/><stop offset="1" stop-color="#495989"/></linearGradient><linearGradient id="paint7_linear_7_218" x1="58" y1="193" x2="58" y2="309" gradientUnits="userSpaceOnUse"><stop stop-color="#13152A"/><stop offset="1" stop-color="#0E1322"/></linearGradient><linearGradient id="paint8_linear_7_218" x1="58" y1="193" x2="58" y2="309" gradientUnits="userSpaceOnUse"><stop stop-color="#4A33FF"/><stop offset="1" stop-color="#357FC7"/></linearGradient><linearGradient id="paint9_linear_7_218" x1="95.6462" y1="260.253" x2="24.286" y2="260.253" gradientUnits="userSpaceOnUse"><stop stop-color="#272E40"/><stop offset="1" stop-color="#232939"/></linearGradient><linearGradient id="paint10_linear_7_218" x1="57.7283" y1="284.03" x2="58.2694" y2="309" gradientUnits="userSpaceOnUse"><stop stop-color="#356535"/><stop offset="1" stop-color="#273D25"/></linearGradient><linearGradient id="paint11_linear_7_218" x1="59.9775" y1="291.054" x2="59.9775" y2="274.91" gradientUnits="userSpaceOnUse"><stop stop-color="#697788"/><stop offset="1" stop-color="#454E5E"/></linearGradient><linearGradient id="paint12_linear_7_218" x1="83.8022" y1="253.85" x2="41.9731" y2="253.85" gradientUnits="userSpaceOnUse"><stop stop-color="#768396"/><stop offset="1" stop-color="#566575"/></linearGradient><linearGradient id="paint13_linear_7_218" x1="58" y1="386" x2="58" y2="502" gradientUnits="userSpaceOnUse"><stop stop-color="#13152A"/><stop offset="1" stop-color="#0E1322"/></linearGradient><linearGradient id="paint14_linear_7_218" x1="57.9999" y1="479.303" x2="57.9999" y2="502" gradientUnits="userSpaceOnUse"><stop stop-color="#2B383A"/><stop offset="1" stop-color="#21362D"/></linearGradient><linearGradient id="paint15_linear_7_218" x1="56.6688" y1="402.323" x2="56.6688" y2="445.96" gradientUnits="userSpaceOnUse"><stop stop-color="#222C37"/><stop offset="1" stop-color="#1A232A"/></linearGradient><linearGradient id="paint16_linear_7_218" x1="69.185" y1="483.857" x2="53.9069" y2="464.48" gradientUnits="userSpaceOnUse"><stop stop-color="#4A565C"/><stop offset="1" stop-color="#3B464D"/></linearGradient><linearGradient id="paint17_linear_7_218" x1="77.758" y1="449.37" x2="30.2926" y2="449.37" gradientUnits="userSpaceOnUse"><stop stop-color="#606D77"/><stop offset="1" stop-color="#404950"/></linearGradient><linearGradient id="paint18_linear_7_218" x1="58" y1="386" x2="58" y2="502" gradientUnits="userSpaceOnUse"><stop stop-color="#288A3E"/><stop offset="1" stop-color="#3DC016"/></linearGradient><linearGradient id="paint19_linear_7_218" x1="800" y1="0" x2="800" y2="116" gradientUnits="userSpaceOnUse"><stop stop-color="#13152A"/><stop offset="1" stop-color="#0E1322"/></linearGradient><linearGradient id="paint20_linear_7_218" x1="800" y1="0" x2="800" y2="116" gradientUnits="userSpaceOnUse"><stop stop-color="#422DF2"/><stop offset="1" stop-color="#5A56FC"/></linearGradient><linearGradient id="paint21_linear_7_218" x1="802.24" y1="105.527" x2="802.24" y2="83.2037" gradientUnits="userSpaceOnUse"><stop stop-color="#5F72A8"/><stop offset="1" stop-color="#3F4C74"/></linearGradient><linearGradient id="paint22_linear_7_218" x1="832.402" y1="38.9682" x2="775.023" y2="38.9682" gradientUnits="userSpaceOnUse"><stop stop-color="#1D2244"/><stop offset="1" stop-color="#1A1F3E"/></linearGradient><linearGradient id="paint23_linear_7_218" x1="826.019" y1="64.4049" x2="775.516" y2="64.4049" gradientUnits="userSpaceOnUse"><stop stop-color="#7082B9"/><stop offset="1" stop-color="#495989"/></linearGradient><linearGradient id="paint24_linear_7_218" x1="800" y1="193" x2="800" y2="309" gradientUnits="userSpaceOnUse"><stop stop-color="#13152A"/><stop offset="1" stop-color="#0E1322"/></linearGradient><linearGradient id="paint25_linear_7_218" x1="800" y1="193" x2="800" y2="309" gradientUnits="userSpaceOnUse"><stop stop-color="#4A33FF"/><stop offset="1" stop-color="#357FC7"/></linearGradient><linearGradient id="paint26_linear_7_218" x1="837.646" y1="260.253" x2="766.286" y2="260.253" gradientUnits="userSpaceOnUse"><stop stop-color="#272E40"/><stop offset="1" stop-color="#232939"/></linearGradient><linearGradient id="paint27_linear_7_218" x1="799.728" y1="284.03" x2="800.269" y2="309" gradientUnits="userSpaceOnUse"><stop stop-color="#356535"/><stop offset="1" stop-color="#273D25"/></linearGradient><linearGradient id="paint28_linear_7_218" x1="801.978" y1="291.054" x2="801.978" y2="274.91" gradientUnits="userSpaceOnUse"><stop stop-color="#697788"/><stop offset="1" stop-color="#454E5E"/></linearGradient><linearGradient id="paint29_linear_7_218" x1="825.802" y1="253.85" x2="783.973" y2="253.85" gradientUnits="userSpaceOnUse"><stop stop-color="#768396"/><stop offset="1" stop-color="#566575"/></linearGradient><linearGradient id="paint30_linear_7_218" x1="800" y1="386" x2="800" y2="502" gradientUnits="userSpaceOnUse"><stop stop-color="#13152A"/><stop offset="1" stop-color="#0E1322"/></linearGradient><linearGradient id="paint31_linear_7_218" x1="800" y1="479.303" x2="800" y2="502" gradientUnits="userSpaceOnUse"><stop stop-color="#2B383A"/><stop offset="1" stop-color="#21362D"/></linearGradient><linearGradient id="paint32_linear_7_218" x1="798.669" y1="402.323" x2="798.669" y2="445.96" gradientUnits="userSpaceOnUse"><stop stop-color="#222C37"/><stop offset="1" stop-color="#1A232A"/></linearGradient><linearGradient id="paint33_linear_7_218" x1="811.185" y1="483.857" x2="795.907" y2="464.48" gradientUnits="userSpaceOnUse"><stop stop-color="#4A565C"/><stop offset="1" stop-color="#3B464D"/></linearGradient><linearGradient id="paint34_linear_7_218" x1="819.758" y1="449.37" x2="772.293" y2="449.37" gradientUnits="userSpaceOnUse"><stop stop-color="#606D77"/><stop offset="1" stop-color="#404950"/></linearGradient><linearGradient id="paint35_linear_7_218" x1="800" y1="386" x2="800" y2="502" gradientUnits="userSpaceOnUse"><stop stop-color="#288A3E"/><stop offset="1" stop-color="#3DC016"/></linearGradient><linearGradient id="paint36_linear_7_218" x1="200.5" y1="58" x2="200.5" y2="117.5" gradientUnits="userSpaceOnUse"><stop stop-color="#2E2183"/><stop offset="1" stop-color="#253A7D"/></linearGradient><linearGradient id="paint37_linear_7_218" x1="656.5" y1="58" x2="656.5" y2="117.5" gradientUnits="userSpaceOnUse"><stop stop-color="#2E2183" stop-opacity="0"/><stop offset="1" stop-color="#253A7D"/></linearGradient><linearGradient id="paint38_linear_7_218" x1="115" y1="209" x2="286" y2="209" gradientUnits="userSpaceOnUse"><stop stop-color="#295670"/><stop offset="1" stop-color="#1E576C"/></linearGradient><linearGradient id="paint39_linear_7_218" x1="571" y1="209" x2="742" y2="209" gradientUnits="userSpaceOnUse"><stop stop-color="#295670"/><stop offset="1" stop-color="#1E576C" stop-opacity="0"/></linearGradient><linearGradient id="paint40_linear_7_218" x1="115" y1="329" x2="286" y2="329" gradientUnits="userSpaceOnUse"><stop stop-color="#247227"/><stop offset="1" stop-color="#1D4039"/></linearGradient><linearGradient id="paint41_linear_7_218" x1="571" y1="329" x2="742" y2="329" gradientUnits="userSpaceOnUse"><stop stop-color="#28762A"/><stop offset="1" stop-color="#1D4039" stop-opacity="0"/></linearGradient><linearGradient id="paint42_linear_7_218" x1="225.5" y1="117.5" x2="211" y2="117.5" gradientUnits="userSpaceOnUse"><stop stop-color="#728DE2"/><stop offset="1" stop-color="#3E4D7C" stop-opacity="0"/></linearGradient><linearGradient id="paint43_linear_7_218" x1="156.5" y1="445.5" x2="142" y2="445.5" gradientUnits="userSpaceOnUse"><stop stop-color="#44E062"/><stop offset="1" stop-color="#44E062" stop-opacity="0"/></linearGradient><linearGradient id="paint44_linear_7_218" x1="175.499" y1="174.164" x2="165.853" y2="184.99" gradientUnits="userSpaceOnUse"><stop stop-color="#509CBB"/><stop offset="1" stop-color="#509CBB" stop-opacity="0"/></linearGradient><clipPath id="clip0_7_218"><rect y="386" width="116" height="116" rx="12" fill="white"/></clipPath><clipPath id="clip1_7_218"><rect x="742" y="386" width="116" height="116" rx="12" fill="white"/></clipPath></defs></svg>